<?xml version="1.0" encoding="utf-8"?>
<!-- Generator: Adobe Illustrator 19.2.1, SVG Export Plug-In . SVG Version: 6.00 Build 0)  -->
<svg version="1.1" id="Calque_1" xmlns="http://www.w3.org/2000/svg" xmlns:xlink="http://www.w3.org/1999/xlink" x="0px" y="0px"
	 viewBox="0 0 432 432" style="enable-background:new 0 0 432 432;" xml:space="preserve">
<style type="text/css">
	.st0{fill:#534741;}
	.st1{fill:#CD8439;}
	.st2{fill:#472E14;}
	.st3{fill:#F5E1CE;}
	.st4{fill:#D4C1AE;}
	.st5{fill:#FF7BAC;}
	.st6{fill:#4E5254;}
	.st7{fill:#CAD4D9;}
	.st8{fill:#ADB6BA;}
	.st9{fill:#BDCCD4;}
	.st10{fill:#DB5C61;}
	.st11{fill:#C1272D;}
	.st12{fill:#333333;}
	.st13{fill:#DBBCBE;}
	.st14{fill:#666666;}
	.st15{fill:#CCCCCC;}
	.st16{fill:#F5A14E;}
	.st17{fill:#BA963B;}
	.st18{fill:#5C9E33;}
	.st19{fill:#DB7600;}
	.st20{fill:#EB8B1C;}
	.st21{fill:#332C27;}
	.st22{fill:#FFB8B8;}
	.st23{fill:#736357;}
	.st24{fill:#BA9A79;}
	.st25{fill:#362317;}
	.st26{fill:#D9811A;}
	.st27{fill:#D44F20;}
	.st28{fill:#96612A;}
</style>
<g>
	<path class="st2" d="M348.3,224.1c-2.7,1-2,2.1-2.3,4.3c-0.3,2.1-0.7,4.1-1,6.2c-0.5,2-0.9,4-1.4,6.1c-0.4,1.5-0.9,3-1.3,4.4
		l-0.7,2.2l-0.8,2.2c-0.6,1.4-1.1,2.9-1.7,4.3l-1.9,4.1c-1.1-0.5-2.3-0.9-3.5-1.1c-1.3-0.2-2.6-0.1-3.8,0.1
		c-1.2,0.2-2.3,0.5-3.4,0.8c-2.1,0.6-4,1.3-5.8,2c-1.9,0.7-3.7,1.4-5.5,2.1c-0.1,0-0.1,0.1-0.1,0.2c0.3,1.1,0.4,2.2,0.6,3.3
		c0,0.2,0.4,1.1,0.7,1c3.2-1.4,6.3-2.8,9.7-4c2.4-0.9,4.7-1.7,6.9-1.5l-1.2,0.9l-2.1,1.7c-3,2.1-5.7,4.3-8.6,6.3c-0.1,0,0,0.2,0,0.2
		c0.5,1.1,1,2.2,1.4,3.3c0.1,0.2,0.6,1.1,0.8,0.9c1.2-1,2.5-2,3.7-3l1.9-1.5l1.9-1.6c1.3-1.1,2.6-2.1,3.9-3.2l0.5-0.4
		c0.1-0.1,0.1-0.1,0.2-0.2l0.3-0.3c0.2-0.2,0.5-0.5,0.8-0.4c0.3,0.1,0.3,0.5,0.3,0.8c0,0.2,0,0.3,0,0.5c0,0.2,0,0.3-0.1,0.8
		c-0.3,1.5-1,3.1-1.7,4.6c-0.4,0.8-0.7,1.6-1.1,2.3l-1.2,2.3c-0.8,1.5-1.6,3.1-2.5,4.5c-0.2,0.3,0.8,0.9,1.1,0.9
		c1.5,0.2,2.2-0.1,2.7-0.7c0.5-0.6,0.8-1.5,1.4-2.5l1.7-3c0.6-1,1.1-2,1.6-3c0.5-1,1-2.1,1.4-3.2c0.3,0.8,0.5,1.6,0.8,2.5
		c0.5,1.9,0.9,3.9,1.4,5.9c0.4,2,0.7,4,1.1,6c0.1,0.4,1.2,0.2,1.4-0.2c2.5-2.2,1.5-3.3,1-6.1c-0.2-1.3-0.5-2.6-0.7-3.9
		c-0.2-1.3-0.5-2.5-0.9-3.9c-0.7-2.4-1.6-4.8-3.2-7c0.6-1.4,1.2-2.9,1.8-4.4c0.3-0.7,0.6-1.5,0.9-2.2l0.8-2.2c0.5-1.5,1-3,1.5-4.5
		l1.2-4.6c1.4-6.2,2.4-12.5,2.7-18.8C349.6,224.1,348.5,223.9,348.3,224.1z"/>
	<path class="st2" d="M315,277.1c0.8,1,2.3,1.5,4.5,0.9c2.3-0.7,2.1-3.7,0.6-5.3c-1.7-1.9-3.1-2.3-4.2-2c-1,0.3-1.7,1.4-1.9,2.7
		C314,274.7,314.2,276.1,315,277.1z"/>
	<path class="st2" d="M331.1,281c-2.5-0.4-3.9,0.1-4.5,1.2c-0.6,1-0.4,2.4,0.2,3.7c0.6,1.3,1.7,2.4,3,2.6c1.3,0.2,2.8-0.4,4.1-2.6
		C335.4,283.6,333.2,281.4,331.1,281z"/>
	<path class="st2" d="M344.5,282.6c-2.5,1-3.5,2.2-3.7,3.5c-0.1,1.3,0.7,2.5,1.9,3.3c1.2,0.8,2.7,1.2,4,0.7c1.3-0.5,2.5-1.9,2.7-4.7
		C349.7,282.5,346.7,281.7,344.5,282.6z"/>
	<path class="st2" d="M310.1,260.9c-2.1,0.6-2.8,1.6-2.7,2.7c0.1,1.1,1,2.3,2.1,3.2c1.1,0.9,2.5,1.4,3.5,1.1c1-0.3,1.7-1.4,1.4-3.6
		C314.3,262.3,312.2,260.2,310.1,260.9z"/>
	<path class="st2" d="M321.9,294.9c-2.9-0.7-2.9,0.6-4.3,2.4c-1.3,1.6-2.8,3.1-4.2,4.6c-1.4,1.5-3,2.9-4.5,4.3
		c-4.6,4.1-9.5,7.8-14.8,10.9c-0.6-1-1.4-2-2.3-2.8c-2.1-1.7-4.4-2.5-6.5-3.1c-2.1-0.6-4.1-1-6-1.5c-1.9-0.4-3.9-0.9-5.8-1.2
		c-0.1,0-0.2,0.1-0.2,0.2c-0.4,1.1-0.8,2.1-1.2,3.2c-0.1,0.2-0.3,1.1,0.1,1.2l2.6,0.4c0.8,0.1,1.7,0.3,2.6,0.4
		c1.7,0.3,3.5,0.7,5.2,1.1c2.5,0.5,4.9,1.2,6.6,2.5l-1.5,0.1l-2.7,0.2c-1.8,0.2-3.6,0.2-5.4,0.4c-0.9,0.1-1.7,0.2-2.6,0.2l-2.6,0.1
		c-0.1,0-0.1,0.1-0.1,0.2c-0.2,1.2-0.4,2.4-0.6,3.6c0,0.2-0.1,1.2,0.2,1.2c3.1-0.4,6.4-0.7,9.7-1.1c1.6-0.2,3.3-0.3,5-0.6l0.6-0.1
		c0.1,0,0.1,0,0.2,0l0.4-0.1c0.3,0,0.7-0.2,0.9,0.1c0.2,0.3,0,0.5-0.2,0.8c-0.1,0.1-0.2,0.3-0.3,0.4c-0.1,0.1-0.2,0.2-0.5,0.6
		c-1.1,1.1-2.5,2-3.9,2.9l-2.2,1.4c-0.7,0.4-1.5,0.8-2.3,1.3c-1.5,0.8-3,1.7-4.6,2.5c-0.3,0.1,0.1,1.2,0.4,1.3
		c2.3,1.9,3,0.6,5.2-0.5c1-0.5,2.1-1,3.1-1.6l3-1.7c1-0.6,2-1.2,2.9-2c-0.2,0.9-0.4,1.7-0.7,2.5c-0.6,1.9-1.3,3.8-2,5.7
		c-0.7,1.9-1.5,3.7-2.3,5.6c-0.1,0.3,0.9,0.8,1.3,0.6c1.6-0.3,2.4-0.7,2.9-1.5c0.5-0.8,0.7-1.8,1.3-3.1c1-2.5,2-4.7,2.8-7.4
		c0.7-2.4,1.3-4.9,1-7.6c5.3-3.4,10.2-7.4,14.9-11.7c4.6-4.4,8.7-9.2,12.4-14.3C323.1,295.7,322.2,294.9,321.9,294.9z"/>
	<path class="st2" d="M272,320.7c-0.4-2.5-1.4-3.6-2.4-3.9c-1.1-0.3-2.2,0.3-3.1,1.2c-0.8,0.9-1.4,2.3-1.2,3.6
		c0.1,0.6,0.4,1.3,0.9,1.8c0.5,0.6,1.3,1,2.4,1.3C270.9,325.4,272.3,322.8,272,320.7z"/>
	<path class="st2" d="M270.5,335.3c-0.1,1.4,0.2,2.9,1.1,3.8c0.5,0.5,1.1,0.7,1.9,0.8c0.8,0.1,1.8-0.2,2.9-0.8
		c2.4-1.2,1.8-4.2,0.2-5.7C272.9,330,270.8,332.5,270.5,335.3z"/>
	<path class="st2" d="M287.1,342.1c-1.3-0.3-2.4-0.3-3.2-0.1c-0.8,0.2-1.4,0.6-1.8,1.1c-0.8,1-0.8,2.5-0.2,3.8
		c0.5,1.3,1.6,2.5,3,2.7c0.7,0.1,1.5,0.1,2.3-0.3c0.8-0.4,1.7-1.1,2.5-2.2C291.5,344.8,289.4,342.5,287.1,342.1z"/>
	<path class="st2" d="M269.8,305.2c-2.1-0.6-3.2-0.1-3.7,0.9c-0.5,1-0.4,2.5,0.1,3.8c0.5,1.3,1.3,2.5,2.4,2.8c1,0.3,2.2-0.2,3.2-2.3
		C272.6,308.7,272,305.8,269.8,305.2z"/>
	<path class="st2" d="M261.4,340.3c-2-2-2.7-1-4.9-0.3c-1,0.3-2,0.6-3,0.9l-3,0.7l-3,0.7l-3.1,0.5l-2.3,0.4l-1.1,0.2l-1.2,0.1
		l-4.6,0.4c-1.5,0.1-3.1,0.1-4.6,0.2c-1.5,0-3,0.1-4.6,0c0-1.2-0.1-2.5-0.5-3.6c-0.8-2.6-2.3-4.5-3.7-6.2c-1.4-1.5-2.9-3.1-4.3-4.5
		c-1.4-1.4-2.8-2.7-4.2-4.1c-0.1-0.1-0.2,0-0.2,0c-0.9,0.6-1.8,1.3-2.8,2c-0.2,0.1-0.8,0.8-0.6,1c1.3,1.1,2.6,2.2,3.9,3.5
		c1.3,1.2,2.6,2.4,3.8,3.7c1.8,1.8,3.5,3.7,4.2,5.7c-0.4-0.2-0.9-0.4-1.3-0.7l-2.4-1.3l-2.4-1.3l-1.2-0.6l-1.2-0.7
		c-1.6-0.9-3.1-1.7-4.6-2.5c-0.1,0-0.2,0-0.2,0.1c-0.8,0.9-1.6,1.7-2.4,2.6c-0.1,0.2-0.7,1-0.4,1.1l2.2,1.1c0.7,0.4,1.4,0.7,2.2,1.1
		c1.5,0.7,2.9,1.4,4.4,2.2c1.5,0.7,3,1.4,4.5,2.2l0.6,0.3c0.1,0.1,0.1,0,0.2,0.1l0.4,0.2c0.2,0.1,0.7,0.2,0.7,0.6
		c0,0.3-0.3,0.4-0.6,0.6c-0.1,0.1-0.3,0.1-0.5,0.2c-0.2,0.1-0.3,0.1-0.7,0.2c-1.5,0.3-3.2,0.4-4.9,0.4l-5.2-0.2
		c-0.9,0-1.7-0.1-2.6-0.2l-2.6-0.2c-0.3,0-0.5,1.1-0.3,1.3c0.9,2.8,2.2,2.1,4.6,2.4c2.3,0.2,4.6,0.4,6.8,0.5c1.1,0,2.3,0,3.5-0.1
		c-0.6,0.6-1.3,1.2-1.9,1.8c-1.5,1.3-3.1,2.5-4.7,3.7c-1.6,1.2-3.3,2.4-5,3.5c-0.3,0.2,0.3,1.2,0.7,1.2c3,1.3,3.6-0.1,6-1.6
		c1.1-0.7,2.2-1.5,3.2-2.3c1.1-0.8,2.1-1.6,3.2-2.4c1.9-1.5,3.7-3.5,5-5.9c12.6,0,25.3-2.5,37.1-7.1
		C262,341.5,261.7,340.4,261.4,340.3z"/>
	<path class="st2" d="M201.8,337.3c0.5,0.1,1,0,1.5-0.2c1-0.4,1.8-1.3,2.2-2.2c1-2.3,0.8-3.8,0.1-4.6c-0.7-0.8-2-0.9-3.2-0.6
		c-1.2,0.3-2.4,1.1-3,2.3c-0.5,1.2-0.4,2.7,1.1,4.5C200.9,337,201.3,337.2,201.8,337.3z"/>
	<path class="st2" d="M202.1,351.5c0.5-1,0.7-2.2,0.4-3.2c-1.3-4.9-4.4-4.1-6.2-1.8c-1.8,2.2-2.2,5.9,3,6.5
		C200.6,353.1,201.6,352.4,202.1,351.5z"/>
	<path class="st2" d="M202,359.3c-1.2,0.4-2,1.7-2.2,3.1c-0.3,1.4,0,2.9,1.1,3.9c1,1,2.8,1.4,5.4,0.5c2.7-1,2.1-4,0.5-5.6
		C204.7,359.2,203.1,358.8,202,359.3z"/>
	<path class="st2" d="M210.8,326.2c1.7-1,2.7-3.8,1.2-5.5c-1.4-1.6-2.7-1.7-3.6-1.2c-1,0.5-1.7,1.8-2,3.2c-0.3,1.4-0.2,2.8,0.5,3.7
		c0.3,0.4,0.8,0.7,1.5,0.7C209.1,327.1,209.9,326.8,210.8,326.2z"/>
	<path class="st2" d="M182.1,342.8c-2-0.6-4-1.3-5.9-1.9c-2-0.7-3.9-1.5-5.8-2.3l-1.1-0.4l-1-0.5l-2.1-1c-1.4-0.7-2.8-1.3-4.1-2.1
		l-4-2.3c-1.3-0.8-2.6-1.7-3.8-2.5c0.7-1,1.2-2.1,1.6-3.3c0.7-2.6,0.5-5,0.2-7.2c-0.3-2.1-0.7-4.1-1.2-6.1c-0.4-2-0.8-3.9-1.3-5.8
		c0-0.1-0.1-0.1-0.2-0.1c-1.1,0.1-2.3,0.1-3.4,0.2c-0.2,0-1.1,0.2-1,0.5c0.2,0.8,0.5,1.7,0.7,2.5l0.7,2.5c0.4,1.7,0.8,3.4,1.2,5.2
		c0.6,2.4,1,4.9,0.5,7.1l-0.7-1.3l-1.3-2.4c-1.7-3.2-3.4-6.3-5-9.4c0-0.1-0.2-0.1-0.2,0c-1.2,0.3-2.3,0.6-3.5,0.9
		c-0.2,0.1-1.1,0.4-1,0.7c0.8,1.4,1.7,2.7,2.5,4.1c0.4,0.7,0.8,1.4,1.2,2.1l1.3,2.1c0.9,1.4,1.7,2.9,2.6,4.3l0.3,0.5
		c0.1,0.1,0.1,0.1,0.1,0.2l0.2,0.3c0.1,0.2,0.4,0.5,0.3,0.8c-0.2,0.3-0.5,0.2-0.8,0.2c-0.2,0-0.3,0-0.5-0.1c-0.2,0-0.3-0.1-0.7-0.2
		c-1.5-0.5-2.9-1.4-4.3-2.4c-0.7-0.5-1.4-0.9-2.2-1.4l-2.1-1.5c-1.4-1-2.8-2-4.1-3.1c-0.2-0.2-1,0.6-1,0.9c-0.4,1.4-0.2,2.2,0.3,2.8
		c0.5,0.6,1.3,1,2.3,1.7l2.7,2.1l2.8,2c0.9,0.6,1.9,1.3,3,1.9c-0.8,0.2-1.7,0.3-2.6,0.4c-2,0.2-4,0.4-6,0.5c-2,0.1-4,0.2-6.1,0.2
		c-0.4,0-0.3,1.2-0.1,1.4c1.8,2.8,3.1,2,5.9,1.9c1.3-0.1,2.6-0.1,3.9-0.1c0.6,0,1.3-0.1,2-0.1c0.7-0.1,1.3-0.1,2-0.2
		c2.5-0.4,5-0.9,7.4-2.2c5.3,3.4,11,6.3,16.9,8.7c1.5,0.6,3,1.1,4.5,1.6l2.2,0.8l2.3,0.7c1.5,0.4,3,0.9,4.6,1.3l4.6,1
		c0.3,0.1,0.6-1,0.4-1.3C185.4,342.8,184.2,343.4,182.1,342.8z"/>
	<path class="st2" d="M141.9,311c2.1-1.4,2.7-2.7,2.5-3.8c-0.2-1.1-1.2-1.9-2.4-2.3c-0.6-0.2-1.3-0.3-1.9-0.2
		c-0.6,0-1.3,0.2-1.8,0.6c-1.1,0.7-1.8,2.1-1.5,4.4C137.2,312,140.1,312.2,141.9,311z"/>
	<path class="st2" d="M131.6,316c-0.9-0.7-2.3-0.8-3.7-0.3c-1.3,0.5-2.6,1.4-3,2.6c-0.2,0.6-0.2,1.3,0.1,2.1
		c0.3,0.8,0.9,1.6,1.9,2.4c2.1,1.7,4.6-0.1,5.3-2.2C132.9,318.1,132.6,316.7,131.6,316z"/>
	<path class="st2" d="M127.4,330.7c-0.5-0.7-1.1-1-1.7-1.2c-1.2-0.3-2.6,0.3-3.6,1.4c-1,1-1.6,2.5-1.2,3.9c0.3,1.4,1.6,2.7,4.3,3.3
		c2.8,0.6,4-2.2,3.5-4.5C128.3,332.3,127.9,331.4,127.4,330.7z"/>
	<path class="st2" d="M152.7,299.6c-1.1,0-2.4,0.7-3.4,1.7c-1,1-1.7,2.3-1.6,3.3c0.1,1,1.1,1.9,3.4,2c1,0,2-0.4,2.8-1.1
		c0.8-0.7,1.3-1.7,1.1-2.8C154.7,300.4,153.8,299.6,152.7,299.6z"/>
	<path class="st2" d="M117.9,304.9c-1.4-1.5-2.7-3.2-4-4.8c-1.3-1.6-2.5-3.3-3.6-5c-0.4-0.6-0.9-1.3-1.3-1.9l-1.2-2
		c-0.8-1.3-1.6-2.6-2.3-4l-2.1-4.1c-0.7-1.4-1.3-2.8-1.9-4.2c1.1-0.5,2.2-1.1,3.1-1.9c2-1.8,3.1-4,4-6c0.9-2,1.6-3.9,2.3-5.7
		c0.7-1.9,1.4-3.7,2-5.6c0-0.1-0.1-0.2-0.1-0.2c-1-0.6-2-1.1-3-1.7c-0.2-0.1-1.1-0.4-1.2-0.1c-0.5,1.6-1,3.3-1.5,4.9
		c-0.5,1.7-1.2,3.4-1.8,5c-0.8,2.4-1.8,4.7-3.4,6.2l0.1-1.5l0.2-2.7c0-0.9,0.1-1.8,0.2-2.7l0.2-2.7l0.2-2.6l0.2-2.6
		c0-0.1-0.1-0.1-0.2-0.2c-1.1-0.4-2.3-0.7-3.4-1.1c-0.2-0.1-1.2-0.2-1.2,0.1c0,1.6-0.1,3.2-0.2,4.8c-0.1,1.6-0.1,3.2-0.1,4.9
		c0,1.7-0.1,3.3-0.1,5l0,0.6c0,0.1,0,0.1,0,0.2l0,0.4c0,0.3,0.1,0.7-0.2,0.9c-0.3,0.1-0.5-0.1-0.8-0.3c-0.1-0.1-0.3-0.2-0.4-0.3
		c-0.1-0.1-0.2-0.2-0.5-0.6c-1-1.2-1.7-2.8-2.4-4.3c-0.7-1.6-1.4-3.2-2-4.8c-0.6-1.6-1.2-3.2-1.8-4.9c-0.1-0.3-1.2,0-1.4,0.2
		c-2.2,2-1,2.9-0.3,5.2c0.4,1.1,0.7,2.2,1.1,3.2l1.2,3.2c0.4,1,0.9,2.1,1.5,3.2c-0.8-0.3-1.6-0.6-2.4-1c-1.8-0.9-3.5-1.8-5.3-2.8
		c-0.9-0.5-1.8-1-2.6-1.5l-2.6-1.6c-0.3-0.2-0.9,0.8-0.8,1.2c0,1.7,0.4,2.5,1.1,3.1c0.7,0.6,1.7,1,2.9,1.7c2.3,1.4,4.4,2.7,6.9,3.9
		c2.3,1,4.6,2,7.4,2.1c2.6,5.7,5.9,11.2,9.5,16.4c3.7,5.1,7.9,9.9,12.4,14.3c0.2,0.2,1.1-0.5,1.1-0.8
		C120.7,306.7,119.4,306.6,117.9,304.9z"/>
	<path class="st2" d="M101.3,249.7c-1.3,0-2.7,0.7-3.6,2.8c-1,2.2,1.4,4,3.5,3.9c2.5,0,3.8-0.9,4.2-1.8c0.4-1,0.1-2.2-0.7-3.2
		C103.9,250.4,102.6,249.7,101.3,249.7z"/>
	<path class="st2" d="M88.8,253.7c-0.5-0.4-1.2-0.7-1.8-0.9c-1.4-0.4-2.9-0.2-4,0.6c-1,0.8-1.6,2.4-0.7,4.8c0.9,2.6,3.9,2.4,5.6,1
		c2-1.6,2.5-3,2.1-4.1C89.8,254.5,89.4,254.1,88.8,253.7z"/>
	<path class="st2" d="M77.6,263.3c-0.9-0.9-2.3-1.1-3.7-0.8c-1.4,0.3-2.7,1.3-3.1,2.6c-0.2,0.7-0.3,1.5,0,2.3
		c0.3,0.9,0.9,1.8,1.8,2.8c2,2,4.5,0.3,5.3-1.9C78.8,265.8,78.5,264.2,77.6,263.3z"/>
	<path class="st2" d="M111.4,257.7c1.6,1.1,4.6,0.9,5.5-1.2c0.9-2,0.6-3.2-0.3-3.8c-0.9-0.6-2.4-0.7-3.8-0.5c-1.4,0.3-2.7,1-3.1,1.9
		C109.2,255.1,109.5,256.4,111.4,257.7z"/>
	<path class="st2" d="M75.1,199.8c1.3,2.1,3,4.2,5.1,5.8c-0.1,0.8-0.2,1.6-0.3,2.3l-0.2,2.4c-0.1,1.6-0.3,3.1-0.4,4.7
		c-0.1,3.2-0.2,6.3,0,9.5c0.2,6.3,1.2,12.6,2.7,18.8c0.1,0.3,1.2,0.1,1.4-0.1c1.2-0.9,1.5-1.5,1.5-2.2c0-0.7-0.3-1.5-0.5-2.6
		l-0.4-3.1c-0.1-1-0.2-2.1-0.3-3.1c-0.2-2.1-0.3-4.1-0.3-6.2l0-4.6l0.3-4.6c0.1-0.8,0.1-1.5,0.2-2.3l0.3-2.3c0.2-1.5,0.4-3,0.6-4.5
		c1.2,0.2,2.4,0.2,3.6,0c2.7-0.4,4.8-1.7,6.7-2.8c3.5-2.4,6.7-4.8,9.7-7.2c0.1-0.1,0.1-0.2,0-0.2c-0.5-1-1-2-1.5-3
		c-0.1-0.2-0.7-0.9-0.9-0.7c-1.3,1.1-2.6,2.2-4,3.3c-1.3,1.1-2.7,2.2-4.2,3.3c-2.1,1.5-4.1,2.9-6.2,3.4l0.8-1.2
		c0.5-0.7,1.1-1.5,1.6-2.2c1.1-1.4,2.2-2.9,3.2-4.3c1.1-1.4,2.2-2.8,3.2-4.2c0-0.1,0-0.2-0.1-0.2l-1.2-1.4l-1.1-1.4
		c-0.1-0.2-0.9-0.8-1.1-0.6c-1,1.3-1.8,2.6-2.7,4l-1.4,2l-0.7,1l-0.7,1c-0.9,1.4-1.8,2.7-2.8,4.1l-0.4,0.5c-0.1,0.1-0.1,0.1-0.1,0.2
		c-0.1,0.1-0.1,0.2-0.2,0.4c-0.1,0.2-0.3,0.6-0.6,0.6c-0.3-0.1-0.4-0.4-0.5-0.7c-0.1-0.1-0.1-0.3-0.1-0.5c0-0.2-0.1-0.3-0.1-0.8
		c-0.1-1.6,0.1-3.2,0.3-4.9c0.3-1.7,0.6-3.4,0.9-5.1c0.2-0.8,0.3-1.7,0.5-2.5l0.6-2.5c0.1-0.3-1-0.7-1.3-0.5
		c-1.4,0.3-2.1,0.7-2.4,1.4c-0.2,0.3-0.3,0.7-0.4,1.2c-0.1,0.5-0.2,1-0.3,1.6l-0.8,3.3l-0.4,1.7l-0.3,1.7c-0.2,1.1-0.3,2.3-0.4,3.5
		c-0.5-0.7-1-1.4-1.5-2.2c-2.1-3.4-3.9-7-5.7-10.7c-0.2-0.3-1.2,0.2-1.3,0.5c-1.7,2.8-0.5,3.6,0.7,6.2
		C72.6,195.2,73.7,197.5,75.1,199.8z"/>
	<path class="st2" d="M100.4,182.9c-1.1-0.7-2.6-0.8-4.6,0.4c-2,1.3-0.9,4.1,0.9,5.2c2.1,1.3,3.6,1.3,4.5,0.7c0.9-0.6,1.2-1.8,1-3.1
		C102,184.9,101.5,183.6,100.4,182.9z"/>
	<path class="st2" d="M83.9,183.7c2.6-0.3,3.6-1.2,3.9-2.4c0.3-1.1-0.3-2.4-1.3-3.5c-1.9-2.1-5.5-3-6.9,2
		C79,182.5,81.7,184,83.9,183.7z"/>
	<path class="st2" d="M73,181.6c-0.3-1.2-1.4-2.2-2.7-2.7c-1.3-0.5-2.9-0.4-4,0.5c-1.1,0.9-1.8,2.6-1.3,5.3c0.6,2.8,3.7,2.7,5.5,1.3
		C72.6,184.3,73.3,182.8,73,181.6z"/>
	<path class="st2" d="M109.7,197.1c1.8-1.2,2.2-2.4,1.7-3.4c-0.4-1-1.6-1.9-2.9-2.4c-1.3-0.5-2.8-0.6-3.7-0.1
		c-1,0.5-1.3,1.8-0.4,3.9C105.3,196.9,107.8,198.3,109.7,197.1z"/>
	<path class="st2" d="M88.7,167.7c2.9-0.2,2.6-1.4,3.5-3.5c1.7-3.8,3.7-7.5,5.8-11c3.3-5.2,6.9-10.2,11.1-14.6c0.9,0.8,1.9,1.5,3,2
		c2.5,1.1,4.9,1.2,7.1,1.2c2.2,0,4.2-0.1,6.2-0.3c2-0.1,4-0.3,5.9-0.5c0.1,0,0.1-0.1,0.1-0.2l0.1-1.7l0.2-1.7c0-0.2-0.1-1.2-0.4-1.1
		c-1.7,0.2-3.4,0.4-5.1,0.6c-1.7,0.2-3.5,0.3-5.3,0.5c-2.5,0.2-5,0.3-7-0.5l1.4-0.5l2.5-1c3.4-1.2,6.7-2.5,10-3.7
		c0.1,0,0.1-0.1,0.1-0.2c-0.1-1.2-0.3-2.4-0.4-3.6c0-0.2-0.3-1.2-0.6-1.1c-2.9,1.3-6,2.5-9,3.8l-2.3,1c-0.8,0.3-1.6,0.6-2.3,1
		l-0.6,0.3c-0.1,0.1-0.1,0.1-0.2,0.1l-0.4,0.2c-0.2,0.1-0.6,0.4-0.9,0.2c-0.2-0.2-0.1-0.5-0.1-0.8c0-0.2,0.1-0.3,0.1-0.5
		c0.1-0.2,0.1-0.3,0.3-0.7c0.4-0.7,0.8-1.4,1.3-2c0.5-0.6,1.1-1.3,1.6-1.9l1.7-1.9l1.8-1.8c1.2-1.2,2.4-2.5,3.7-3.6
		c0.2-0.2-0.5-1.1-0.8-1.1c-1.4-0.6-2.1-0.5-2.8-0.1c-0.6,0.4-1.2,1.2-2,2l-2.5,2.4l-2.4,2.5c-0.8,0.8-1.6,1.7-2.3,2.7
		c-0.1-0.9-0.1-1.7-0.1-2.6c0.1-2,0.2-4,0.3-6c0.2-2,0.4-4,0.7-6c0-0.4-1.1-0.5-1.4-0.3c-3,1.4-2.4,2.7-2.7,5.6
		c-0.1,1.3-0.3,2.6-0.4,3.9c-0.1,0.6-0.1,1.3-0.2,2c0,0.7-0.1,1.3-0.1,2c0,2.5,0.2,5.1,1.1,7.6c-4.1,4.8-7.8,10-11,15.4
		c-3.1,5.5-5.8,11.3-7.9,17.3C87.4,167.4,88.4,167.8,88.7,167.7z"/>
	<path class="st2" d="M132.8,132.1c1.1,0,2-0.9,2.6-2c0.3-0.6,0.4-1.2,0.5-1.9c0-0.6,0-1.3-0.3-1.9c-0.5-1.2-1.8-2.1-4.1-2.1
		c-2.4,0-3,2.9-2.1,4.9C130.5,131.3,131.7,132.1,132.8,132.1z"/>
	<path class="st2" d="M121.3,118c2.3,1.1,3.8,1,4.6,0.1c0.8-0.8,1.1-2.2,0.8-3.6c-0.3-1.4-1-2.8-2.2-3.4c-0.6-0.3-1.3-0.4-2.1-0.2
		c-0.8,0.2-1.7,0.6-2.6,1.5C117.9,114.4,119.3,117.1,121.3,118z"/>
	<path class="st2" d="M108.8,112.7c1.3-0.1,2.3-0.4,3.1-0.8c0.7-0.4,1.2-0.9,1.4-1.5c0.5-1.2,0-2.6-0.8-3.7
		c-0.9-1.1-2.2-1.9-3.7-1.8c-1.4,0.1-2.9,1.2-3.9,3.8C103.9,111.3,106.6,112.9,108.8,112.7z"/>
	<path class="st2" d="M135.8,143.2c2.2,0,3.1-0.8,3.3-1.9c0.2-1.1-0.3-2.5-1.2-3.6c-0.8-1.1-2-2-3.1-2c-1.1,0-2,0.9-2.4,3.1
		c-0.2,0.9,0.1,2.1,0.7,3C133.8,142.6,134.7,143.3,135.8,143.2z"/>
	<path class="st2" d="M134,107.2c2.6,1.4,2.9,0.2,4.8-1.1c1.7-1.2,3.5-2.2,5.3-3.2c1.8-1.1,3.7-2,5.5-2.9l2.1-1l2.1-0.9
		c1.4-0.6,2.8-1.2,4.3-1.7c2.9-1,5.8-2,8.8-2.7c0.3,1.2,0.8,2.3,1.5,3.3c1.5,2.2,3.5,3.6,5.3,4.8c3.7,2.3,7.1,4,10.6,5.9
		c0.1,0,0.2,0,0.2-0.1c0.7-0.9,1.4-1.8,2.1-2.7c0.1-0.2,0.6-1,0.3-1.1c-0.8-0.4-1.6-0.7-2.3-1.1c-0.8-0.4-1.6-0.7-2.3-1.1
		c-1.6-0.8-3.2-1.7-4.7-2.5c-2.2-1.2-4.4-2.5-5.7-4.3l1.4,0.3l2.7,0.6c1.7,0.3,3.5,0.8,5.2,1.1c1.7,0.4,3.4,0.7,5.1,1.1
		c0.1,0,0.2-0.1,0.2-0.2c0.5-1.1,1.1-2.1,1.6-3.2c0.1-0.2,0.4-1.2,0.1-1.2c-1.6-0.3-3.2-0.6-4.8-0.9c-1.6-0.3-3.2-0.5-4.8-0.8
		l-2.5-0.5l-2.5-0.4l-0.6-0.1c-0.1,0-0.1,0-0.2,0l-0.4,0c-0.3,0-0.7,0-0.8-0.3c-0.1-0.3,0.2-0.5,0.4-0.7c0.1-0.1,0.2-0.2,0.4-0.3
		c0.1-0.1,0.2-0.2,0.7-0.4c0.7-0.4,1.4-0.7,2.2-1c0.8-0.3,1.6-0.5,2.4-0.7l2.5-0.7l1.3-0.3l1.3-0.3l5.1-1.1c0.3-0.1,0.2-1.2-0.1-1.4
		c-1.7-2.4-2.7-1.4-5.1-1c-2.3,0.3-4.5,0.9-6.7,1.4c-0.6,0.1-1.1,0.3-1.7,0.4c-0.6,0.2-1.1,0.4-1.7,0.6c0.4-0.8,0.9-1.6,1.4-2.3
		c2.3-3.2,4.7-6.5,7.4-9.6c0.2-0.3-0.7-1-1-1c-3.3-0.5-3.5,1.1-5.3,3.3c-0.8,1-1.6,2-2.5,3c-0.8,1-1.6,2.1-2.3,3.3
		c-1.4,2.1-2.6,4.3-3.2,7l-4.5,1.4c-1.5,0.5-3,1.1-4.4,1.7l-2.2,0.9l-2.2,1c-1.4,0.7-2.9,1.3-4.3,2.1c-5.6,2.9-11,6.4-16,10.3
		C133.1,106.2,133.7,107.1,134,107.2z"/>
	<path class="st2" d="M193.5,93.7c-2.1-1.3-4.1,0.8-4.4,2.9c-0.3,2.5,0.3,3.9,1.2,4.4c0.9,0.5,2.2,0.4,3.3-0.3
		c1.1-0.7,2-1.8,2.2-3.1C196,96.4,195.5,94.9,193.5,93.7z"/>
	<path class="st2" d="M194.7,83c0.5-1.3,0.7-2.9,0-4c-0.3-0.6-0.9-1.1-1.6-1.3c-0.8-0.3-1.8-0.3-3-0.1c-2.7,0.5-2.9,3.5-1.8,5.4
		C190.9,87.4,193.6,85.6,194.7,83z"/>
	<path class="st2" d="M180.7,71.7c2.4,1.3,4,1.2,5,0.4c1-0.7,1.4-2.1,1.3-3.6c-0.1-1.4-0.9-2.8-2.1-3.5c-1.3-0.7-3.1-0.5-5.3,1.1
		C177.3,67.9,178.7,70.7,180.7,71.7z"/>
	<path class="st2" d="M190.2,105.2c-0.9-0.6-2.2-0.4-3.7,1.2c-1.3,1.5-1.5,4.4,0.4,5.6c0.5,0.3,0.9,0.5,1.3,0.6
		c0.4,0.1,0.7,0.2,1,0.2c0.6,0,1.1-0.2,1.5-0.6c0.8-0.8,1.1-2.3,1-3.7C191.6,107.1,191.1,105.8,190.2,105.2z"/>
	<path class="st2" d="M262.6,76.1c-1.3-1.1-2.1-1.3-3-1.2c-0.9,0.1-1.8,0.6-3.2,1.1c-2.5,0.9-4.9,1.6-7.5,2.7
		c-2.3,1-4.5,2.3-6.5,4.2c-1.5-0.5-3-0.8-4.6-1.2c-1.5-0.4-3.1-0.8-4.6-1l-4.7-0.8c-1.6-0.2-3.1-0.4-4.7-0.5l-2.4-0.2l-2.4-0.1
		c-1.6-0.1-3.2-0.1-4.7-0.1l-4.7,0.1c-0.8,0-1.6,0.1-2.4,0.1l-2.4,0.2c-0.3,0-0.3,1.2-0.1,1.4c1.4,2.6,2.3,1.6,4.6,1.7l3.1,0
		c1,0,2.1,0,3.1,0.1c2.1,0.2,4.1,0.3,6.2,0.5c3.1,0.4,6.1,0.9,9.1,1.6l2.2,0.5l1.1,0.3l1.1,0.3l4.4,1.3c-0.4,1.2-0.6,2.4-0.6,3.6
		c0.1,2.7,1,5,1.9,7c0.9,1.9,1.9,3.7,2.8,5.5c0.9,1.8,1.9,3.5,2.9,5.2c0,0.1,0.2,0.1,0.2,0c1.1-0.4,2.1-0.7,3.2-1.1
		c0.2-0.1,1-0.6,0.9-0.8c-1.8-2.9-3.6-5.8-5.4-9c-0.6-1.1-1.2-2.2-1.6-3.3c-0.4-1.1-0.7-2.2-0.8-3.3l1,1c0.7,0.6,1.3,1.2,1.9,1.9
		c1.3,1.3,2.5,2.6,3.8,3.8c1.3,1.2,2.5,2.5,3.7,3.8c0.1,0.1,0.2,0,0.2,0c1-0.6,2.1-1.3,3.1-1.9c0.2-0.1,1-0.7,0.7-1
		c-1.2-1.1-2.4-2.1-3.6-3.3l-1.8-1.7c-0.6-0.6-1.2-1.1-1.8-1.6c-1.2-1.1-2.4-2.2-3.7-3.4l-0.5-0.4c-0.1-0.1-0.1-0.1-0.2-0.1
		l-0.3-0.2c-0.2-0.2-0.6-0.4-0.5-0.7c0.1-0.3,0.4-0.3,0.7-0.4c0.2,0,0.3-0.1,0.5-0.1c0.2,0,0.3,0,0.8,0c1.6,0.2,3.2,0.6,4.8,1.1
		c1.7,0.5,3.3,1.1,4.9,1.7l2.4,0.9c0.8,0.3,1.6,0.6,2.4,1c0.3,0.1,0.8-0.9,0.7-1.2c-0.1-2.9-1.5-2.7-3.7-3.6
		c-2.1-0.8-4.2-1.7-6.4-2.4c-1.1-0.4-2.2-0.7-3.4-0.9c0.8-0.4,1.5-0.8,2.4-1.1c1.8-0.7,3.7-1.5,5.6-2.2c1.9-0.7,3.8-1.3,5.8-1.9
		C263.3,77.4,263,76.3,262.6,76.1z"/>
	<path class="st2" d="M257,101.6c-1.6,1.9-1.8,3.4-1.4,4.4c0.5,1,1.6,1.5,2.9,1.5c1.3,0,2.6-0.4,3.5-1.4c0.9-1,1.2-2.5,0.2-4.6
		C261.2,99.3,258.3,100,257,101.6z"/>
	<path class="st2" d="M269,93.2c2.3-1.6,3.8-5-1-7.1c-2.5-1-4.4,1.4-4.4,3.6c-0.1,2.6,0.7,3.8,1.8,4.2C266.5,94.4,267.9,94,269,93.2
		z"/>
	<path class="st2" d="M267.3,79.3c1.3-0.1,2.4-1.1,3-2.3c0.6-1.3,0.8-2.8,0.1-4.1c-0.4-0.6-0.9-1.2-1.8-1.5
		c-0.4-0.2-0.9-0.3-1.4-0.4c-0.5-0.1-1.2-0.1-1.9,0c-2.9,0.2-3.2,3.3-2.1,5.3C264.6,78.4,266,79.3,267.3,79.3z"/>
	<path class="st2" d="M249.8,115.6c1.1-0.3,2.1-1.3,2.8-2.5c0.7-1.2,1-2.6,0.6-3.6c-0.4-1-1.6-1.5-3.8-0.9c-1.9,0.5-3.7,2.8-2.7,4.9
		C247.6,115.4,248.7,115.9,249.8,115.6z"/>
	<path class="st2" d="M281.7,100.7c3.5,2.2,6.9,4.7,10.1,7.3c4.7,4,9.1,8.3,12.9,13.1c-0.9,0.8-1.8,1.7-2.4,2.7
		c-1.4,2.3-1.8,4.7-2.2,6.9c-0.3,2.1-0.5,4.2-0.6,6.2c-0.1,2-0.3,4-0.4,5.9c0,0.1,0.1,0.1,0.2,0.2l1.7,0.4l1.6,0.4
		c0.2,0,1.2,0.1,1.2-0.2c0-1.7,0.1-3.4,0.1-5.2c0.1-1.7,0.2-3.5,0.3-5.3c0.1-2.5,0.4-5,1.5-6.9l0.3,1.4l0.6,2.6l1.1,5.3
		c0.4,1.7,0.7,3.4,1.1,5.2c0,0.1,0.1,0.1,0.2,0.1c1.2,0,2.4,0.1,3.6,0.1c0.2,0,1.2-0.1,1.2-0.4c-0.9-3-1.6-6.3-2.5-9.4
		c-0.4-1.6-0.8-3.3-1.3-4.8l-0.2-0.6c0-0.1,0-0.1-0.1-0.2l-0.1-0.4c-0.1-0.2-0.3-0.6,0-0.9c0.2-0.2,0.5,0,0.8,0
		c0.1,0.1,0.3,0.1,0.5,0.2c0.2,0.1,0.3,0.1,0.6,0.4c1.3,0.9,2.4,2.2,3.5,3.5l1.7,2l1.6,2.1l1.6,2.1l0.8,1l0.7,1.1
		c0.2,0.3,1.2-0.3,1.2-0.6c1.5-2.6,0.2-3.1-1.2-5.1l-2-2.8l-2.1-2.7c-0.7-0.9-1.5-1.8-2.4-2.6c0.9,0,1.7,0.2,2.6,0.3
		c1.9,0.4,3.9,0.8,5.9,1.2c2,0.4,3.9,1,5.9,1.5c0.4,0.1,0.7-1,0.4-1.3c-1-3.2-2.4-2.8-5.2-3.5c-2.6-0.6-5-1.3-7.7-1.8
		c-2.5-0.4-5-0.6-7.7,0.1c-4.2-4.7-8.8-9.1-13.7-13.1c-5-3.9-10.3-7.3-16-10.3c-0.3-0.1-0.9,0.8-0.8,1.1
		C278.5,99.7,279.8,99.5,281.7,100.7z"/>
	<path class="st2" d="M311.3,142.5c-2.4,0.8-3.4,1.9-3.5,3c-0.1,1.1,0.6,2.1,1.6,2.8c1.1,0.7,2.5,1.1,3.7,0.7
		c1.2-0.3,2.4-1.5,2.7-3.8C316.1,142.9,313.3,141.9,311.3,142.5z"/>
	<path class="st2" d="M323.3,136.1c-1.4,2.1-1.5,3.6-0.8,4.5c0.7,0.9,2,1.4,3.5,1.3c1.4-0.1,2.9-0.6,3.6-1.7c0.4-0.5,0.6-1.2,0.5-2
		c-0.1-0.8-0.4-1.8-1.2-2.8C327.4,133.3,324.5,134.3,323.3,136.1z"/>
	<path class="st2" d="M332,129.3c1.1,0.6,2.6,0.4,3.8-0.3c1.2-0.7,2.2-2,2.3-3.4c0-0.7-0.2-1.5-0.6-2.2c-0.5-0.8-1.3-1.5-2.5-2.1
		c-2.5-1.4-4.4,1-4.6,3.3c-0.1,1.4,0.1,2.4,0.4,3.1C331,128.4,331.5,129,332,129.3z"/>
	<path class="st2" d="M301.2,144.2c-0.9-0.3-2.1-0.2-3.1,0.3c-1,0.5-1.7,1.3-1.9,2.4c-0.3,2.2,0.3,3.2,1.4,3.6
		c1.1,0.4,2.5,0,3.8-0.6c1.2-0.7,2.3-1.7,2.4-2.7C304.1,146,303.3,144.9,301.2,144.2z"/>
	<path class="st2" d="M360.4,200.9c0.5-1.6,0.3-2.5-0.2-3.3c-0.5-0.8-1.3-1.4-2.3-2.4c-0.9-1-1.7-1.9-2.7-2.9
		c-0.9-0.9-1.9-1.9-2.9-2.8c-0.9-0.8-1.9-1.6-3-2.3c-1.1-0.7-2.3-1.3-3.5-1.8c-0.2-1.6-0.5-3.1-0.8-4.7l-1-4.6
		c-0.3-1.6-0.8-3.1-1.2-4.6l-0.7-2.3c-0.2-0.8-0.5-1.5-0.7-2.3c-2.1-6-4.8-11.8-7.9-17.3c-0.2-0.3-1.2,0.2-1.3,0.5
		c-1.7,2.3-0.6,2.9,0.4,4.9c0.9,1.9,1.7,3.8,2.4,5.7c0.4,1,0.8,1.9,1.1,2.9l1,3c1,2.9,1.6,5.9,2.4,8.9l0.8,4.5
		c0.1,0.8,0.3,1.5,0.4,2.3l0.3,2.3c-1.2,0.1-2.4,0.5-3.5,1c-2.4,1.2-4.1,2.9-5.5,4.6c-1.4,1.7-2.7,3.3-3.9,4.9
		c-1.2,1.6-2.3,3.2-3.5,4.8c0,0.1,0,0.2,0.1,0.2c0.8,0.8,1.6,1.6,2.4,2.4c0.1,0.1,0.9,0.7,1.1,0.4c0.9-1.4,1.8-2.9,2.9-4.3
		c1-1.4,2.1-2.9,3.1-4.3c1.5-2,3.1-4,5.1-5l-0.5,1.4l-0.9,2.6l-0.9,2.5l-1,2.5l-0.9,2.5c-0.3,0.8-0.6,1.6-0.9,2.4
		c0,0.1,0,0.2,0.1,0.2c1,0.7,2,1.4,2.9,2.1c0.2,0.1,1.1,0.6,1.2,0.3c0.5-1.5,1-3.1,1.6-4.6c0.5-1.5,1-3.1,1.5-4.7
		c0.6-1.6,1-3.1,1.5-4.7l0.2-0.6c0-0.1,0-0.1,0-0.2l0.1-0.4c0.1-0.3,0.1-0.7,0.4-0.8c0.3,0,0.5,0.3,0.7,0.5c0.1,0.1,0.2,0.3,0.3,0.4
		c0.1,0.2,0.1,0.3,0.3,0.7c0.5,1.5,0.9,3.1,1.1,4.8c0.2,1.7,0.4,3.4,0.6,5.2l0.3,5.2c0,0.3,1.2,0.4,1.4,0.1c2.6-1.3,1.8-2.5,1.7-4.9
		c0-1.1-0.1-2.3-0.2-3.4l-0.2-3.4c-0.1-1.1-0.3-2.3-0.6-3.5c0.7,0.5,1.4,1.1,2.1,1.7c1.5,1.4,2.8,2.8,4.3,4.2l2.1,2.2
		c0.7,0.7,1.4,1.5,2,2.3C359.5,202.1,360.4,201.3,360.4,200.9z"/>
	<path class="st2" d="M332.8,212.8c1.2,0.4,2.7,0,4.3-1.7c0.8-0.9,0.8-2,0.3-2.9c-0.5-0.9-1.5-1.6-2.6-1.9c-2.4-0.7-3.9-0.3-4.6,0.6
		c-0.3,0.4-0.5,0.9-0.5,1.5c0,0.6,0.1,1.2,0.3,1.8C330.6,211.3,331.6,212.4,332.8,212.8z"/>
	<path class="st2" d="M348.5,207.4c-4.7,2-3.4,4.9-0.9,6.4c2.5,1.5,6.1,1.3,6-3.8C353.5,207.2,350.5,206.6,348.5,207.4z"/>
	<path class="st2" d="M366.3,201.2c-1.3-2.5-4.3-1.6-5.6,0.3c-1.6,2.2-1.8,3.8-1.2,4.9c0.6,1.1,1.9,1.7,3.4,1.8
		c1.4,0.1,2.9-0.4,3.8-1.6C367.4,205.4,367.5,203.6,366.3,201.2z"/>
	<path class="st2" d="M319.9,201.8c-0.7,0.8-1,1.5-1.1,2.2c-0.1,0.6,0,1.1,0.4,1.6c0.7,0.9,2.1,1.4,3.5,1.5c1.4,0.1,2.8-0.2,3.5-1
		c0.4-0.4,0.5-0.9,0.5-1.6c-0.1-0.6-0.4-1.4-1.2-2.3C324.2,200.7,321.3,200.1,319.9,201.8z"/>
</g>
<g>
	<path d="M204.5,234.6c0.1-0.1,0.2-0.3,0.2-0.5c0.2-0.5,0.5-1,0.9-1.4c0.8-0.8,2-0.7,2.7,0.2c0.4,0.5,0.5,1.1,0.6,1.7c0.1,1,0,2,0,3
		c-0.1,1.3-0.2,2.6-0.3,3.9c-0.1,1.9-0.2,3.8-0.2,5.7c0,1.9,0.2,3.7,0.2,5.5c0,1.1,0.1,2.1,0.1,3.2c0,1.1,0.1,2.2,0.4,3.2
		c0.1,0.2,0.1,0.5,0.3,0.7c0.2,0.3,0.3,0.3,0.6,0.1c0.3-0.2,0.4-0.4,0.6-0.6c0.3-0.5,0.5-1,0.7-1.5c0.7-1.9,1.1-3.8,1.6-5.8
		c0.3-1.1,0.5-2.3,0.7-3.4c0.1-0.3,0.1-0.5,0-0.8c-0.3-1.4-0.4-2.9-0.4-4.3c0-0.3,0-0.6,0-0.8c0-0.3,0-0.3-0.3-0.3
		c-0.3,0.1-0.7,0.1-1,0.1c-0.2,0-0.5,0-0.7-0.1c-0.3-0.1-0.5-0.3-0.5-0.5c0-0.2,0.2-0.4,0.5-0.5c0.4-0.1,0.8-0.1,1.2-0.2
		c0.3,0,0.6,0,0.8-0.1c0.2-0.2,0.1-0.5,0.1-0.8c0.1-2.3,0.2-4.6,0.6-6.9c0.1-0.8,0.3-1.6,0.7-2.3c0.2-0.5,0.6-1,1-1.3
		c0.9-0.8,1.9-0.6,2.5,0.5c0.4,0.8,0.5,1.7,0.6,2.6c0,0.8,0,1.5,0,2.3c-0.1,1.8-0.1,3.5-0.1,5.3c0,0.4,0,0.4,0.4,0.4
		c0.4,0,0.9-0.1,1.3-0.1c0.2,0,0.4,0,0.6,0.1c0.2,0.1,0.4,0.3,0.4,0.5c0,0.2-0.1,0.4-0.4,0.5c-0.2,0.1-0.5,0.1-0.8,0.1
		c-0.4,0-0.8,0-1.2,0.1c-0.3,0-0.4,0-0.3,0.4c0,0.9,0.1,1.8,0.1,2.6c0,0.8,0.1,1.7,0.1,2.5c0.1,1.7,0.1,3.3,0.2,5
		c0,0.7,0.1,1.3,0.3,2c0.1,0.2,0.1,0.4,0.3,0.6c0.1,0.2,0.3,0.2,0.5,0.1c0.2-0.1,0.4-0.4,0.6-0.6c0.3-0.5,0.6-1,0.8-1.5
		c0.5-1.2,0.8-2.5,1.2-3.8c0-0.2,0-0.3,0-0.5c-0.9-2.6-1.2-5.4-1-8.1c0.1-1.3,0.3-2.5,0.7-3.7c0.3-0.8,0.8-1.6,1.4-2.2
		c0.2-0.2,0.4-0.4,0.7-0.5c1.2-0.7,2.4-0.6,3.4,0.4c1,1,1.7,2.2,2.2,3.6c0.2,0.6,0.4,1.2,0.4,1.8c0.1,0.8-0.1,1.5-0.7,2.1
		c-0.7,0.7-1.5,1.1-2.4,1.4c-0.1,0-0.3,0.1-0.4,0.1c-0.3,0-0.3,0.2-0.3,0.4c0.2,1.3,0.4,2.6,0.9,3.8c0.5,1.1,0.9,2.2,1.3,3.4
		c0.2,0.6,0.6,1.1,1,1.6c0.5,0.6,1.1,0.7,1.8,0.5c0.5-0.1,1-0.5,1.4-0.8c0.7-0.7,1.2-1.5,1.6-2.3c0.1-0.2,0.1-0.4,0.1-0.6
		c0-1.2-0.1-2.5-0.1-3.7c0-2.3,0-4.5,0.2-6.8c0.2-2.7,0.5-5.3,1.3-7.9c0.5-1.6,1.3-3.2,2.3-4.6c0.7-1,1.6-1.9,2.7-2.5
		c0.5-0.3,1.1-0.5,1.7-0.6c1.3-0.2,2.2,0.3,3,1.3c0.5,0.6,0.7,1.3,0.8,2.1c0.3,1.9,0,3.8-0.7,5.6c-0.5,1.6-1.3,3-2.2,4.4
		c-1.2,2-2.5,3.9-3.9,5.7c-0.2,0.2-0.3,0.5-0.3,0.8c0,2.7,0,5.4,0.2,8.1c0.1,1.3,0.2,2.6,0.4,3.9c0,0.4,0,0.4,0.4,0.3
		c1.8-0.1,3.6,0,5.3,0.6c1.4,0.4,2.6,1.1,3.7,2c1.5,1.3,2.4,3,2.7,5c0.3,2.2-0.1,4.2-0.9,6.2c-0.5,1.3-1.4,2.5-2.6,3.3
		c-1.6,1.2-3.4,1.4-5.2,0.5c-2-0.9-3.5-2.3-4.7-4.1c-1.2-1.7-2-3.7-2.5-5.7c-0.4-1.5-0.7-3-0.9-4.5c0-0.1,0-0.3-0.1-0.4
		c-0.1,0-0.1,0-0.2,0c-2.7,1.2-4.8,3.2-6.2,5.8c-0.1,0.1-0.1,0.2-0.2,0.3c-0.1,0.3-0.2,0.3,0.2,0.5c1.4,0.8,2.2,1.9,2.5,3.5
		c0.1,0.7,0.1,1.4-0.2,2c-0.6,1.2-1.9,1.6-3,1c-0.6-0.3-1-0.8-1.3-1.4c-0.7-1.1-0.8-2.4-0.7-3.6c0-0.2,0.2-0.6,0-0.7
		c-0.1-0.1-0.5,0-0.7,0c-1,0.1-2,0.4-2.9,0.7c-1.9,0.7-3.8,1.4-5.8,2c-2.5,0.7-5,1.2-7.6,1.5c-2.3,0.3-4.7,0.4-7.1,0.4
		c-2.5-0.1-4.9-0.4-7.3-1.3c-1.4-0.5-2.6-1.1-3.7-2.1c-1.3-1.1-2.1-2.5-2.3-4.2c-0.1-0.6,0-1.2,0.2-1.8c0.6-2.1,2.6-3.5,4.7-3.5
		c1.9,0.1,3.6,1.5,4,3.3c0.1,0.3,0.1,0.6,0,0.9c-0.1,0.9-0.5,1.6-1.1,2.3c-0.3,0.3-0.6,0.5-0.9,0.7c-1,0.4-2.1-0.2-2.1-1.3
		c0-0.3,0.1-0.5,0.3-0.7c0.1-0.1,0.3-0.1,0.4-0.1c0.1,0.1,0.2,0.2,0.2,0.4c0,0.2,0,0.4,0.1,0.6c0.1,0.2,0.2,0.2,0.4,0.1
		c0.1-0.1,0.2-0.1,0.3-0.2c0.8-0.8,1.1-2.2,0.5-3.1c-0.7-1.2-1.7-1.8-3.1-1.5c-1.6,0.3-3.2,2.2-2.6,4.3c0.3,1.2,1,2.1,1.9,2.8
		c1.2,1,2.7,1.6,4.2,2c1.4,0.4,2.8,0.6,4.2,0.7c1.9,0.2,3.9,0.2,5.8,0c4.6-0.4,9.1-1.2,13.4-2.8c1.3-0.5,2.7-0.9,4-1.3
		c0.9-0.2,1.8-0.3,2.8-0.3c0.3,0,0.4-0.1,0.5-0.3c1.6-3.4,4.1-5.7,7.5-7.2c0.1-0.1,0.2-0.1,0.4-0.1c0.4-0.2,0.4-0.2,0.3-0.6
		c-0.1-0.6-0.1-1.2-0.2-1.9c-0.1-0.7-0.1-1.3-0.2-2c0-0.1,0-0.1-0.1-0.2c-0.1,0-0.2,0.2-0.3,0.3c-0.5,0.6-1,1.2-1.6,1.7
		c-0.7,0.6-1.5,1-2.4,1.1c-1.1,0.2-2.2-0.1-3.2-0.6c-1.6-0.8-2.9-2-3.8-3.5c-0.1-0.1-0.1-0.3-0.3-0.4c-0.1,0.2-0.2,0.5-0.2,0.7
		c-0.3,1.4-0.8,2.7-1.6,3.8c-0.2,0.3-0.4,0.6-0.7,0.9c-0.7,0.7-1.6,0.8-2.5,0.3c-0.6-0.3-1.1-0.8-1.6-1.4c-0.9-1.1-1.5-2.4-2-3.7
		c-0.1-0.2-0.2-0.5-0.3-0.7c0,0,0,0-0.1-0.1c-0.2,0.5-0.2,1-0.3,1.5c-0.4,1.9-0.7,3.8-1.1,5.6c-0.1,0.7-0.4,1.4-0.7,2.1
		c-0.3,0.5-0.6,1-1,1.4c-1,1-2.3,1.1-3.5,0.2c-0.6-0.5-1.1-1.1-1.5-1.7c-1.1-1.6-1.7-3.3-2.2-5.1c-0.4-1.5-0.5-3.1-0.6-4.6
		c-0.1-1.8-0.1-3.6,0-5.4c-0.2,0-0.2,0.2-0.2,0.2c-0.3,0.8-0.7,1.6-1.1,2.3c-0.5,0.8-1.1,1.6-1.8,2.2c-0.7,0.6-1.5,1-2.4,1.1
		c-1,0.2-1.9-0.1-2.6-0.7c-0.6-0.4-1-1-1.5-1.5c-0.1-0.1-0.2-0.3-0.4-0.4c-0.1,0.4-0.2,0.8-0.3,1.2c-0.4,1.3-0.8,2.6-1.4,3.8
		c-0.3,0.5-0.5,1.1-0.9,1.6c-0.2,0.3-0.5,0.6-0.7,0.9c-0.9,0.8-1.8,0.9-2.8,0.3c-0.7-0.4-1.3-1-1.7-1.7c-0.9-1.3-1.4-2.7-1.7-4.2
		c-0.5-2.2-0.3-4.3,0.1-6.4c0.8-3.6,2.1-6.9,3.9-10.1c0.1-0.1,0.1-0.3,0.2-0.4c0,0,0-0.1,0-0.1c-0.3-0.1-0.5-0.1-0.8-0.1
		c-0.6,0-1.1,0-1.7,0c-1.3,0-2.6-0.1-3.9-0.1c-0.4,0-0.4,0-0.4,0.3c0,2.9-0.9,5.5-2.1,8.1c-0.4,0.8-0.9,1.6-1.4,2.4
		c-0.2,0.3-0.2,0.6-0.2,1c0.3,2.9,0.5,5.8,0.6,8.8c0,1.8-0.1,3.5-0.5,5.3c-0.7,3-2.2,5.5-4.5,7.5c-0.9,0.8-2,1.4-3.2,1.6
		c-1.7,0.3-3.2-0.4-4.1-1.9c-0.4-0.7-0.5-1.4-0.6-2.2c-0.1-1.8,0.3-3.6,1-5.2c0.8-1.8,2-3.5,3.2-5.1c1-1.2,2-2.4,3-3.6
		c0.2-0.2,0.3-0.5,0.3-0.8c-0.2-2.2-0.4-4.4-0.5-6.6c0-0.3,0-0.6-0.1-0.9c-0.2,0-0.2,0.2-0.3,0.3c-0.7,1.6-1.6,3.2-2.6,4.6
		c-0.6,1-1.4,1.8-2.3,2.6c-0.7,0.5-1.4,1-2.2,1.2c-1.7,0.6-3.1,0.3-4.4-0.9c-1.2-1.2-2-2.7-2.4-4.4c-0.7-3.1-0.2-6,1.6-8.6
		c1.6-2.5,4-3.6,7-3.5c2,0.1,3.7,1,5,2.5c0.1,0.1,0.1,0.2,0.3,0.3c0-0.3,0.1-0.5,0.1-0.8c0.1-0.5,0.2-0.9,0.5-1.3
		c0.7-1.1,2-1.3,3-0.4c0.4,0.4,0.7,0.9,0.9,1.4c0.2,0.7,0.3,1.5,0.4,2.2c0.1,1.8,0.3,3.7,0.4,5.5c0,0.2,0.1,0.4,0.1,0.7
		c0.1,0,0.2-0.1,0.2-0.2c1.2-2.2,2.2-4.5,2.5-7c0.1-0.8,0.2-1.7,0.1-2.5c0-0.4,0-0.4-0.4-0.4c-1.3-0.1-2.6-0.3-3.8-0.6
		c-1.2-0.3-2.4-0.5-3.5-1c-0.7-0.3-1.3-0.6-1.9-1c-0.6-0.4-1-0.9-1.4-1.5c-0.9-1.6-0.2-3.3,1-4.2c0.6-0.5,1.4-0.7,2.2-0.8
		c0.9-0.1,1.9,0.1,2.7,0.4c3.1,1.3,5,3.6,6,6.8c0,0.1,0.1,0.2,0.1,0.3c0.1,0.7,0.1,0.6,0.8,0.6c2,0.2,4.1,0.1,6.1,0
		c0.3,0,0.7-0.1,1-0.1c0.9-0.1,1.5,0.2,1.9,0.9c0.3,0.6,0.5,1.2,0.5,1.8c0,1.2-0.2,2.4-0.5,3.6c-0.3,1.2-0.8,2.4-1.1,3.5
		c-0.6,2-1,4-1.2,6c-0.2,1.4-0.3,2.7-0.3,4.1c0,0.7,0,1.4,0.1,2.2c0,0.2,0.1,0.4,0.2,0.7c0.2,0.4,0.3,0.4,0.6,0.2
		c0.2-0.2,0.4-0.4,0.6-0.6c0.3-0.4,0.5-0.8,0.7-1.2c0.9-1.8,1.5-3.7,2.1-5.6c0.1-0.2,0-0.4-0.1-0.6c-0.5-1.1-1-2.2-1.1-3.4
		c-0.4-3.1,0-6,1.9-8.5c1-1.3,2.2-2.3,3.8-2.7c2.8-0.6,5.1,0.2,7,2.3C204.2,234.3,204.3,234.4,204.5,234.6
		C204.5,234.6,204.5,234.6,204.5,234.6z M242.2,256.9c-0.5,0-0.9,0-1.4,0.1c-0.2,0-0.3,0.1-0.3,0.3c0,0.1,0,0.1,0,0.2
		c0.4,2.3,0.8,4.6,1.5,6.8c0.4,1.4,0.7,2.7,1.3,4c0.5,1,1.1,1.9,1.9,2.6c1,0.9,2,1,3.2,0.2c0.3-0.2,0.6-0.5,0.9-0.8
		c0.4-0.5,0.8-1.1,1-1.7c0.7-1.7,0.9-3.4,0.7-5.2c-0.3-2-1.2-3.6-2.8-4.7c-0.7-0.5-1.4-0.8-2.1-1.1
		C244.8,257.1,243.5,257,242.2,256.9z M162.3,243.5c0,0.8,0,1.5,0.1,2.3c0.1,0.6,0.2,1.2,0.5,1.8c0.4,0.9,1.2,1.2,2.1,1
		c0.6-0.1,1.1-0.4,1.6-0.8c0.7-0.5,1.2-1,1.7-1.7c1.5-1.8,2.6-3.8,3.5-6c0.2-0.6,0.4-1.1,0.3-1.8c0-0.3-0.1-0.5-0.2-0.7
		c-0.7-1.2-1.7-2-3-2.4c-2.1-0.8-4.3,0.1-5.3,2.1c-0.2,0.3-0.3,0.6-0.4,1C162.5,239.9,162.3,241.7,162.3,243.5z M196.1,243.2
		c0,1,0,1.8,0.1,2.7c0.1,0.8,0.2,1.6,0.6,2.3c0.3,0.7,0.8,0.9,1.5,0.7c0.6-0.1,1-0.4,1.5-0.7c0.7-0.6,1.2-1.2,1.6-2
		c0.8-1.4,1.4-3,2-4.5c0.1-0.1,0.1-0.3,0.1-0.4c0.1-1.2,0.2-2.4,0.4-3.7c0.1-0.3,0-0.6-0.3-0.8c-1-1-2.1-1.6-3.4-1.7
		c-1.2-0.1-2.2,0.3-2.8,1.4c-0.4,0.6-0.6,1.3-0.8,2C196.2,240.1,196.1,241.7,196.1,243.2z M173,250.3c-0.1,0.1-0.1,0.1-0.1,0.1
		c-1.5,1.8-2.9,3.5-4.2,5.5c-0.7,1-1.3,2.1-1.7,3.3c-0.5,1.2-0.7,2.4-0.6,3.7c0.1,0.8,0.2,1.6,0.7,2.3c0.6,0.9,1.5,1.1,2.5,0.6
		c0.5-0.3,0.9-0.6,1.2-1c0.8-0.9,1.4-2,1.7-3.2c0.3-1.1,0.4-2.1,0.5-3.2c0.1-0.8,0.1-1.6,0.1-2.5c0.1-1.5,0.1-3,0-4.5
		C173.1,251,173,250.7,173,250.3z M239.7,240.5c0.2,0,0.2-0.2,0.3-0.3c0.8-1.1,1.5-2.2,2.3-3.4c0.7-1.1,1.3-2.2,1.9-3.3
		c0.6-1.3,1.1-2.7,1.3-4.1c0.1-0.9,0.1-1.9-0.2-2.8c-0.1-0.4-0.3-0.7-0.6-1c-0.5-0.5-0.9-0.6-1.5-0.2c-0.3,0.2-0.5,0.4-0.7,0.6
		c-0.4,0.4-0.6,0.8-0.9,1.3c-0.4,0.9-0.7,1.9-0.9,2.9c-0.5,3.2-0.9,6.4-1.1,9.7C239.7,240,239.7,240.2,239.7,240.5z M180.1,231.3
		c-0.5-3-3.2-5.8-6.2-6.4c-0.8-0.2-1.5-0.1-2.3,0.1c-0.6,0.2-1.1,0.6-1.3,1.3c-0.3,0.9,0,1.7,0.6,2.3c0.7,0.6,1.5,1,2.3,1.3
		c1.7,0.6,3.5,1,5.4,1.3C179.2,231.3,179.6,231.4,180.1,231.3z M226.4,242.1c0.7-0.2,1.3-0.4,1.9-0.8c0.7-0.4,0.9-1.1,0.7-1.8
		c-0.3-1.2-0.9-2.2-1.9-3c-0.1-0.1-0.2-0.2-0.3-0.1C226.6,238.2,226.3,240.1,226.4,242.1z M228.3,266.2c-0.3,1.2-0.4,2.4,0.1,3.6
		c0.2,0.3,0.4,0.6,0.7,0.8c0.5,0.4,1.1,0.2,1.4-0.3c0.2-0.4,0.3-0.8,0.2-1.2c-0.1-1-0.6-1.8-1.4-2.4
		C229,266.5,228.7,266.3,228.3,266.2z"/>
	<path d="M243.5,141.4c0.3,0.7,0.6,1.4,0.8,2.1c0.9,2.8,1.1,5.7,0.9,8.7c-0.2,2.2-0.6,4.3-1.4,6.3c-0.5,1.3-1.2,2.5-2.2,3.5
		c-0.9,0.9-2,1.6-3.3,1.8c-1.2,0.2-2.4,0-3.6-0.5c-1.5-0.7-2.7-1.6-3.5-3c-0.1-0.1-0.1-0.3-0.3-0.3c-0.1,0.6-0.3,1.2-0.4,1.8
		c-0.3,1.3-0.8,2.5-1.4,3.7c-0.2,0.5-0.5,1-0.9,1.4c-0.2,0.2-0.4,0.4-0.6,0.6c-0.8,0.6-1.6,0.6-2.4,0.2c-0.7-0.4-1.2-1-1.7-1.6
		c-0.7-1.2-1.2-2.5-1.4-4c-0.2-1.3-0.1-2.6,0-4c0.1-1.6,0.3-3.3,0.5-4.9c0.1-0.6,0.1-1.1,0.1-1.7c0-0.4,0-0.4-0.4-0.3
		c-0.5,0.1-0.8,0.4-1.2,0.7c-0.6,0.5-1.2,1.2-1.6,1.8c-0.8,1.2-1.3,2.5-1.7,3.8c-0.1,0.2-0.1,0.5,0,0.7c0.2,1.4,0.1,2.8,0.1,4.2
		c0,0.5,0,0.9-0.2,1.4c-0.2,0.9-1,1.2-1.8,0.7c-0.4-0.3-0.7-0.6-0.9-1c-0.6-1-1.2-2-1.6-3.1c0-0.1-0.1-0.3-0.2-0.4
		c-0.1,0.2-0.1,0.3-0.2,0.5c-0.4,1.6-0.9,3.2-1.6,4.7c-0.3,0.6-0.5,1.1-0.9,1.6c-0.2,0.3-0.4,0.6-0.7,0.9c-0.8,0.9-1.7,1-2.8,0.4
		c-0.7-0.4-1.3-1-1.7-1.7c-0.8-1.1-1.3-2.3-1.8-3.5c-0.5-1.3-0.9-2.6-1.2-3.9c0-0.1,0-0.2-0.2-0.3c-0.1,0.2-0.1,0.3-0.1,0.5
		c-0.6,2.4-1.1,4.8-1.9,7.1c-0.2,0.6-0.4,1.2-0.7,1.8c-0.2,0.4-0.5,0.8-0.9,1.1c-0.7,0.5-1.4,0.5-2.1,0.1c-0.4-0.2-0.7-0.6-1-0.9
		c-1.1-1.2-1.6-2.5-2-4c-0.5-1.9-0.7-3.9-0.5-5.9c0-0.4,0-0.8,0.1-1.2c-0.2,0.2-0.2,0.3-0.3,0.5c-0.6,1.2-1.3,2.4-2.1,3.4
		c-0.5,0.6-1,1.2-1.6,1.7c-0.4,0.3-0.7,0.5-1.2,0.6c-0.9,0.2-1.7,0.1-2.4-0.5c-0.5-0.4-0.8-0.9-1.1-1.4c-0.4-0.8-0.7-1.6-0.9-2.5
		c0-0.1-0.1-0.3-0.1-0.4c-0.2,0-0.2,0.1-0.3,0.2c-0.8,0.9-1.5,1.7-2.4,2.6c-0.3,0.3-0.4,0.7-0.4,1.1c0.2,1.4,0.3,2.9,0.4,4.4
		c0.2,3.5-0.3,6.9-1.3,10.3c-0.6,2.1-1.7,3.9-3.2,5.5c-0.4,0.4-0.7,0.7-1.2,1.1c-1.6,1.2-3.3,0.7-4.4-0.2c-1-0.9-1.6-2.1-1.8-3.4
		c-0.3-1.5,0-3,0.4-4.4c0.5-1.4,1.2-2.8,2-4c1.2-1.9,2.5-3.6,4-5.2c0.2-0.2,0.3-0.5,0.3-0.8c-0.2-1.5-0.3-3-0.4-4.4
		c-0.1-1.4-0.3-2.8-0.4-4.2c0-0.1,0-0.2,0-0.2c-0.2,0-0.2,0.2-0.2,0.3c-0.4,0.9-0.7,1.8-1.2,2.6c-0.8,1.5-1.8,2.8-3.1,3.9
		c-0.8,0.7-1.7,1.3-2.8,1.5c-0.9,0.2-1.6,0-2.2-0.6c-0.4-0.3-0.7-0.7-0.9-1.1c-1.4-2.3-1.8-4.7-1.1-7.3c0.5-2,1.5-3.8,3-5.3
		c1.4-1.4,3.1-2.1,5.2-2c1,0.1,1.9,0.3,2.7,0.8c0.2,0.1,0.3,0.2,0.5,0.3c0.1-0.2,0.1-0.4,0.2-0.6c0.3-1.1,1.2-1.8,2.3-1.7
		c0.6,0,1.1,0.4,1.6,0.8c0.4,0.5,0.6,1,0.7,1.6c0.2,1,0.3,2,0.4,3c0.2,2.5,0.4,4.9,0.6,7.4c0,0.1,0,0.2,0.1,0.3
		c0.2,0,0.2-0.1,0.3-0.2c0.9-0.9,1.7-1.9,2.5-2.8c0.2-0.2,0.2-0.4,0.2-0.7c-0.1-2.5,0.6-4.8,2-6.9c0.6-0.8,1.2-1.5,2.1-2.1
		c2.2-1.4,4.8-1.3,6.7,0.4c0.1,0.1,0.2,0.1,0.2,0.2c0.2-0.1,0.2-0.2,0.2-0.4c0.2-0.4,0.4-0.7,0.6-1c0.8-0.9,2-0.8,2.6,0.1
		c0.3,0.4,0.4,0.8,0.6,1.3c0.2,0.9,0.3,1.8,0.2,2.7c-0.1,1.4-0.2,2.9-0.3,4.3c-0.1,1.7-0.2,3.5-0.2,5.2c0,1.7-0.2,3.3-0.3,4.9
		c0,0.6-0.1,1.2,0,1.8c0,0.2,0,0.5,0.2,0.6c0.2,0.1,0.4-0.2,0.5-0.3c0.3-0.4,0.5-0.9,0.6-1.4c0.6-1.8,1.2-3.6,1.7-5.5
		c0.3-1.2,0.7-2.5,1-3.7c0.2-0.5,0.2-1,0.1-1.5c-0.1-1-0.2-2-0.2-2.9c0-1.8,0-3.7,0-5.5c0.1-1.7,0.2-3.4,0.3-5.1
		c0-0.4,0-0.4-0.4-0.5c-5.1-0.6-9.9-2.1-14.7-3.8c-2.6-0.9-5.2-1.8-7.9-2.4c-1.6-0.4-3.2-0.6-4.8-0.7c-1.6,0-3.2,0.2-4.7,0.9
		c-0.1,0.1-0.3,0.1-0.4,0.2c0.1,0.2,0.2,0.3,0.3,0.5c0.6,1,1,2,0.9,3.2c-0.1,0.6-0.3,1.2-0.6,1.7c-0.7,1-1.9,1.3-3,0.9
		c-1.1-0.5-1.8-1.6-1.6-2.7c0.1-0.7,0.4-1.4,0.9-2c0.4-0.5,0.9-1,1.4-1.4c-0.1-0.2-0.2-0.3-0.4-0.4c-1.2-0.9-2.5-1.4-4-1.5
		c-1.3-0.1-2.5,0-3.7,0.3c-4.1,1.1-6.6,4.9-7,8.2c-0.1,1-0.1,2,0.3,3c0.2,0.4,0.3,0.8,0.7,1.2c0.2,0.2,0.2,0.4,0.1,0.6
		c-0.1,0.1-0.3,0.1-0.6,0c-0.4-0.3-0.7-0.7-0.9-1.1c-0.5-1-0.7-2.1-0.7-3.3c0-1.3,0.3-2.5,0.9-3.6c1.8-3.7,4.7-5.9,8.8-6.4
		c1.5-0.2,3-0.1,4.4,0.4c1.1,0.4,2.1,0.9,2.9,1.7c0.2,0.2,0.3,0.2,0.6,0.1c1.9-1.1,4-1.5,6.2-1.4c2.2,0.1,4.4,0.6,6.6,1.1
		c2.9,0.8,5.6,1.8,8.4,2.8c3.4,1.2,6.8,2.1,10.3,2.7c0.5,0.1,0.9,0.1,1.4,0.2c0.4,0,0.4,0,0.4-0.3c0.1-0.7,0.1-1.4,0.2-2.1
		c0.2-1.4,0.4-2.8,0.9-4.2c0.2-0.6,0.5-1.2,0.8-1.7c0.8-1.2,1.9-1,2.5,0.3c0.4,0.9,0.5,1.8,0.6,2.7c0.1,1.3,0.1,2.6,0,3.9
		c0,0.5-0.1,0.9-0.1,1.4c0,0.4,0,0.4,0.3,0.4c1.7,0,3.4-0.2,5-0.6c0.3-0.1,0.3-0.2,0.4-0.4c0.4-1.6,1-3.2,1.7-4.7
		c0.4-0.9,0.9-1.7,1.5-2.4c0.6-0.7,1.4-1.3,2.3-1.5c1.6-0.3,2.9,0.7,3,2.3c0,0.7-0.1,1.4-0.4,2.1c-0.4,0.9-1,1.6-1.7,2.3
		c-0.8,0.7-1.6,1.3-2.6,1.8c-0.3,0.2-0.4,0.3-0.5,0.7c-0.2,2.2,0,4.5,0.2,6.7c0.2,1.7,0.3,3.4,0.5,5c0.1,1,0.3,2,0.4,3.1
		c0,0.1,0.1,0.2,0.1,0.4c0.2-0.1,0.2-0.3,0.3-0.5c0.8-1.9,1.9-3.5,3.4-4.9c0.4-0.4,0.9-0.7,1.4-1c1.1-0.5,2-0.4,2.9,0.3
		c0.5,0.4,0.8,0.8,1.1,1.3c0.6,1.2,0.9,2.5,0.9,3.8c0,1.5-0.1,3.1-0.2,4.6c-0.1,1.9-0.5,3.7-0.7,5.5c0,0.4-0.1,0.7,0,1.1
		c0,0.5,0.2,0.6,0.7,0.3c0.3-0.2,0.5-0.5,0.7-0.8c0.5-0.7,0.8-1.5,1.1-2.4c0.5-1.5,0.8-3.1,1.1-4.6c0-0.2,0-0.4-0.1-0.6
		c-0.6-1.6-0.9-3.3-1-5.1c-0.2-2.3,0-4.5,0.7-6.6c0.2-0.7,0.5-1.4,0.9-2.1c0.5-0.8,1.2-1.5,2-1.9c1.4-0.7,2.7-0.6,3.8,0.4
		c1.1,1,1.9,2.2,2.1,3.7c0.2,1.3-0.3,2.3-1.4,2.9c-0.8,0.5-1.7,0.6-2.6,0.7c-0.1,0-0.2,0-0.3,0c-0.1,0-0.2,0.1-0.2,0.2
		c0,0.1,0,0.2,0,0.3c-0.1,2.4,0.3,4.7,1.3,6.9c0.3,0.6,0.5,1.2,0.8,1.8c0.3,0.6,0.7,1.2,1.2,1.7c1,1,2.4,1,3.5,0.1
		c0.5-0.5,0.9-1,1.2-1.6c0.8-1.5,1.3-3.1,1.7-4.8c0.9-4.4,0.4-8.7-1.3-12.8c0-0.1-0.1-0.1-0.1-0.2c-0.1-0.3-0.3-0.4-0.6-0.4
		c-1.5-0.1-3-0.3-4.5-0.7c-0.8-0.2-1.6-0.5-2.3-0.8c-0.4-0.2-0.8-0.4-1.1-0.8c-0.8-0.8-1.1-1.8-0.7-2.9c0.4-1.1,1.2-1.6,2.3-1.6
		c0.7-0.1,1.4,0.1,2,0.4c1.2,0.6,2.3,1.5,3.2,2.6c0.7,0.8,1.3,1.6,1.8,2.5c0.2,0.3,0.3,0.4,0.7,0.4c1.6,0,3.1,0.1,4.7,0.2
		c1,0.1,2.1,0.1,3.1,0.2c0.9,0.1,1.6,0.6,2.1,1.3c0.6,0.9,0.7,1.9,0.7,3c-0.1,1.6-0.5,3.1-0.9,4.6c-0.5,2-1.2,4-1.7,6.1
		c-0.7,2.8-1.1,5.7-1.3,8.6c-0.1,1,0,2.1,0.3,3.1c0.2,1,0.7,1.8,1.5,2.4c1.3,1,3,0.8,4.1-0.4c0.8-0.9,1.4-1.8,1.5-3
		c0.1-0.6,0-1.2-0.3-1.8c-0.5-0.8-1.2-1.2-2.1-1.2c-0.6,0-1.2,0.6-1.3,1.1c-0.1,0.3,0,0.6,0.3,0.7c0.1,0.1,0.2,0.1,0.3,0.2
		c0.1,0.1,0.2,0.3,0.1,0.4c-0.1,0.2-0.2,0.2-0.4,0.2c-0.6,0-1.1-0.4-1.3-1c-0.1-0.3-0.1-0.5,0-0.8c0.4-1.6,2-2.4,3.5-1.9
		c1.2,0.5,2,1.4,2.2,2.7c0.3,2.2-0.4,4.2-2.1,5.7c-1.1,1-2.5,1.3-3.9,1.1c-1.8-0.2-3.3-1.2-4.4-2.6c-1.2-1.5-1.9-3.3-2.2-5.2
		c-0.5-2.4-0.3-4.9,0.1-7.3c0.5-2.6,1.3-5.2,2-7.8c0.5-1.9,1-3.7,1.5-5.6c0.1-0.3,0.1-0.6,0.2-0.8c0.1-0.2,0-0.4-0.2-0.5
		c-0.5-0.3-1.1-0.5-1.7-0.6c-1-0.2-2-0.2-3-0.3C244.4,141.5,244,141.4,243.5,141.4z M212.7,141.5c-0.2-0.1-0.3,0-0.4,0
		c-1.5,0.3-3,0.5-4.5,0.6c-0.4,0-0.5,0-0.5,0.5c-0.1,2.6-0.2,5.2-0.2,7.8c0,2.5,0.1,4.9,0.1,7.4c0,1.9,0,3.9,0.2,5.8
		c0.1,0.9,0.2,1.8,0.5,2.6c0.1,0.3,0.2,0.6,0.4,0.8c0.3,0.4,0.6,0.4,1,0.1c0.3-0.2,0.5-0.5,0.7-0.7c0.4-0.6,0.7-1.2,0.9-1.8
		c0.7-1.7,1.2-3.3,1.7-5.1c0.2-0.8,0.4-1.6,0.1-2.4c0,0,0,0,0,0c-0.3-2.1-0.6-4.2-0.7-6.3c-0.1-2.1-0.1-4.3,0.2-6.4
		C212.3,143.5,212.5,142.5,212.7,141.5z M174.8,154c0-0.1,0-0.2,0-0.3c0-1.1-0.1-1.3-1.1-1.8c0,0-0.1,0-0.1-0.1
		c-1.9-0.8-3.7-0.6-4.9,1.3c-0.1,0.2-0.2,0.3-0.4,0.5c-0.7,1.1-1.2,2.2-1.5,3.4c-0.4,1.3-0.7,2.6-0.6,3.9c0,0.8,0.2,1.7,0.6,2.4
		c0.3,0.5,0.6,0.6,1.1,0.6c0.5-0.1,1-0.3,1.4-0.6c0.6-0.4,1.1-0.9,1.5-1.4c1.7-1.8,2.9-3.9,3.7-6.2
		C174.7,155.3,174.9,154.6,174.8,154z M175.9,167.3c-0.1,0.1-0.1,0.1-0.2,0.1c-1.2,1.3-2.3,2.7-3.2,4.2c-0.8,1.3-1.6,2.7-2.1,4.2
		c-0.3,1-0.6,2.1-0.5,3.2c0.1,1.2,0.4,2.4,1.2,3.4c0.8,0.9,2.1,1.4,3.3,0.1c0.7-0.7,1.2-1.6,1.5-2.5c0.6-1.9,0.8-3.9,0.7-5.9
		c0-1.6-0.3-3.1-0.5-4.7C176,168.8,176,168.1,175.9,167.3z M187,159.9c0,0.5,0,1.2,0.2,1.9c0.2,0.6,0.5,0.7,1.1,0.5
		c0.4-0.1,0.7-0.4,1-0.7c0.5-0.5,0.9-1,1.2-1.5c1.2-1.7,2.1-3.6,2.9-5.6c0-0.1,0.1-0.2,0.1-0.3c0.1-0.8,0.2-1.7,0.3-2.5
		c0-0.2,0-0.3-0.1-0.4c-1.1-1-2.9-1.3-4.1,0.1c-0.5,0.6-0.8,1.2-1.1,1.9C187.7,155.4,187.2,157.5,187,159.9z M241.8,140.3
		c0.1-0.1,0-0.2,0-0.2c-1-1.8-2.5-3.2-4.2-4.2c-0.2-0.1-0.5-0.2-0.8-0.3c-0.4-0.1-0.7-0.1-1.1-0.1c-0.7,0.1-1.2,0.7-1.2,1.5
		c0,0.6,0.3,1.1,0.8,1.5c0.6,0.5,1.4,0.9,2.2,1.1c1,0.3,2,0.5,3,0.6C240.9,140.3,241.3,140.3,241.8,140.3z M216.6,138.9
		c0.1,0,0.1,0,0.2,0c0.1,0,0.1-0.1,0.2-0.1c0.9-0.5,1.7-1.1,2.4-1.8c0.5-0.5,0.9-1.1,1.2-1.8c0.2-0.4,0.3-0.8,0.3-1.2
		c0-0.5-0.2-1-0.7-1.2c-0.5-0.2-1-0.1-1.4,0.3c-0.3,0.2-0.5,0.6-0.7,0.9c-0.3,0.6-0.6,1.2-0.7,1.9
		C216.9,136.8,216.7,137.8,216.6,138.9z M234.9,148.8c0.6-0.1,1.2-0.1,1.7-0.3c0.9-0.3,1.3-0.9,1.2-1.8c-0.1-1-0.7-1.7-1.6-2.2
		c-0.7-0.4-0.9-0.3-1.1,0.4c-0.3,1.1-0.6,2.2-0.7,3.3C234.4,148.9,234.4,148.9,234.9,148.8C234.9,148.8,234.9,148.8,234.9,148.8z
		 M169.4,139.6c0-1-0.4-1.9-1.1-2.7c-0.1-0.1-0.2-0.1-0.3,0c-0.7,0.5-1.3,1.2-1.6,2c-0.2,0.5-0.3,0.9-0.2,1.4
		c0.1,0.7,0.7,1.2,1.4,1.3c0.6,0.1,1.2-0.3,1.5-1C169.3,140.3,169.4,140,169.4,139.6z"/>
	<path d="M263.6,282.4c-0.5-0.8-1.3-1.2-2.3-1.1c-0.9,0.1-1.6,0.6-2,1.4c-0.2,0.5-0.2,1-0.1,1.5c0.3,0.9,1,1.1,1.8,1.2
		c0.2,0,0.4-0.1,0.5-0.3c0.1-0.3-0.1-0.4-0.3-0.5c0,0-0.1,0-0.1,0c-0.4-0.1-0.6-0.4-0.7-0.8c-0.1-0.5,0-0.9,0.3-1.2
		c0.3-0.3,0.8-0.4,1.2-0.2c0.8,0.3,1.3,1,1.3,1.9c0,0.8-0.3,1.5-0.8,2.1c-0.6,0.8-1.3,1.5-2.1,2.1c-0.1,0.1-0.2,0.2-0.4,0.2
		c-0.3-0.4-0.5-0.8-0.8-1.2c-0.5-0.8-1.1-1.6-1.6-2.4c-0.4-0.8-0.8-1.6-1.1-2.4c-0.2-0.5-0.1-0.5,0.2-0.8c0.9-0.7,1.5-1.7,2-2.7
		c0.2-0.5,0.3-1.1,0.3-1.7c0-1.2-1-2.3-2.2-2.5c-1.1-0.2-2,0.1-2.8,0.8c-0.5,0.4-1,0.9-1.4,1.5c-1.4,2.1-1.6,4.4-0.9,6.9
		c0.1,0.2,0.7,2.7,3.1,6c-0.3,1-0.7,1.9-1.1,2.8c-0.5,1.2-1.1,2.2-2,3.2c-0.3,0.4-0.7,0.8-1.2,1c-0.4,0.2-0.7,0.3-1.2,0.3
		c-0.9-0.1-1.6-0.5-2-1.3c-0.2-0.4-0.4-0.8-0.4-1.2c-0.4-1.9-0.5-3.8-0.7-5.7c-0.1-1.5-0.1-3-0.2-4.5c0-0.3,0-0.4,0.3-0.4
		c1-0.1,1.9-0.2,2.9-0.3c0.5,0,1-0.1,1.4-0.3c0.3-0.1,0.5-0.4,0.4-0.6c0-0.3-0.3-0.5-0.6-0.6c-0.4,0-0.8-0.1-1.2,0
		c-1,0.2-2,0.1-3,0.2c-0.4,0-0.4,0-0.4-0.4c-0.1-1-0.1-2-0.2-2.9c-0.1-1.2-0.3-2.4-0.6-3.6c-0.1-0.5-0.3-0.9-0.6-1.3
		c-0.3-0.4-0.8-0.6-1.2-0.4c-0.3,0.1-0.5,0.3-0.7,0.6c-0.2,0.4-0.4,0.9-0.5,1.4c-0.5,2-0.7,4.1-0.8,6.1c0,0.8,0.1,0.7-0.7,0.7
		c-0.6,0-1.2,0.1-1.8,0.1c-0.4,0.1-0.5,0.2-0.6,0.5c0,0.3,0.1,0.5,0.4,0.6c0.2,0.1,0.4,0.1,0.6,0.2c0.6,0.1,1.1,0.1,1.7,0.1
		c0.2,0,0.3,0.1,0.3,0.3c0,0.6,0.1,1.3,0.1,1.9c0,0.3,0,0.6-0.1,0.9c-0.5,1.8-1.1,3.6-1.6,5.4c-0.2,0.7-0.5,1.4-0.8,2.1
		c-0.2,0.3-0.4,0.7-0.7,0.9c-0.4,0.4-0.9,0.3-1.2-0.2c-0.1-0.1-0.2-0.3-0.2-0.5c-0.1-0.4-0.2-0.8-0.2-1.1c-0.2-1.8-0.1-3.6-0.2-5.4
		c0-0.5,0-1,0-1.5c0.1-2,0.3-4,0.5-6c0.1-1,0.1-2,0.1-2.9c-0.1-0.8-0.3-1.5-0.7-2.1c-0.6-0.9-1.4-1.5-2.6-1.6c-1-0.1-2-0.2-3-0.1
		c-1,0-2,0-3-0.1c-0.3,0-0.5-0.1-0.7-0.4c-0.2-0.5-0.4-0.9-0.7-1.3c-0.6-1-1.4-1.9-2.4-2.5c-0.6-0.4-1.2-0.6-1.9-0.5
		c-1.2,0.2-1.9,1.2-1.5,2.3c0.2,0.6,0.5,1,1,1.4c0.7,0.6,1.6,1,2.5,1.3c0.6,0.2,1.3,0.4,2,0.5c0.2,0,0.4,0.1,0.4,0.4
		c0.1,0.3,0.2,0.7,0.3,1c0.7,2.5,0.8,5.1,0.7,7.7c-0.1,1.8-0.2,3.7-0.4,5.5c-0.2,1.4-0.5,2.8-1,4.1c-0.2,0.4-0.4,0.8-0.7,1.2
		c-0.1,0.2-0.3,0.3-0.5,0.4c-0.3,0.1-0.5,0.1-0.6-0.2c-0.1-0.2-0.1-0.4-0.1-0.6c-0.2-1.1-0.3-2.3-0.3-3.5c-0.1-1.7-0.4-3.4-0.4-5.1
		c0-1.9,0-3.8,0-5.6c0-1.2,0-2.4-0.4-3.6c-0.1-0.5-0.4-1-0.8-1.4c-1-0.9-2.3-0.8-3.1,0.3c-0.1,0.1-0.1,0.3-0.3,0.3
		c-1.1-1.2-2.6-1.7-4.2-1.7c-2,0-3.6,0.8-4.8,2.4c-1.3,1.7-1.8,3.6-1.8,5.6c0,1.4,0.3,2.8,0.8,4.1c0.1,0.2,0.1,0.4,0.1,0.7
		c-0.3,1.3-0.6,2.6-1,3.8c-0.3,0.7-0.5,1.4-1,2.1c-0.7,0.9-1.5,0.9-2.1-0.1c-0.4-0.6-0.6-1.2-0.9-1.8c-0.5-1.2-0.9-2.5-1.3-3.7
		c-0.4-1.1-0.7-2.3-0.8-3.4c-0.1-0.6-0.1-0.5,0.4-0.6c0.5-0.1,1-0.3,1.4-0.5c1.1-0.6,1.6-1.6,1.5-2.8c-0.2-1.8-1-3.4-2.4-4.5
		c-1.3-1-2.7-1-3.9,0.1c-0.7,0.6-1.2,1.4-1.5,2.3c-0.4,1.2-0.6,2.4-0.6,3.7c-0.1,2.3,0.3,4.6,1,6.8c0.1,0.3,0.2,0.6,0.1,0.9
		c-0.1,1-0.2,2-0.4,2.9c-0.2,1.3-0.5,2.5-1.1,3.7c-0.2,0.5-0.5,0.9-0.8,1.3c-0.2,0.2-0.4,0.4-0.6,0.3c-0.3-0.1-0.3-0.4-0.4-0.6
		c-0.2-0.7-0.1-1.5-0.1-2.2c0-0.7,0.1-1.3,0.1-2c0-1.4,0-2.8,0-4.2c0-1.8,0.1-3.5,0-5.3c0-1-0.1-2-0.4-3c-0.4-1.3-1-2.5-2.1-3.4
		c-0.9-0.7-1.9-1-3.1-0.7c-0.6,0.1-1.1,0.4-1.6,0.8c-1.3,0.9-2.3,2-3.2,3.4c-0.9,1.4-1.6,3-2.1,4.6c0,0.1,0,0.3-0.2,0.3
		c-0.4-1.7-0.5-3.4-0.7-5.2c-0.2-2.8,0-5.5,0.1-8.2c0-0.4,0.2-0.7,0.6-0.9c1.5-1,2.8-2.1,3.8-3.6c0.6-0.9,1.1-1.9,1.2-3.1
		c0.3-2.2-1.4-3.6-3.5-2.9c-0.8,0.2-1.4,0.7-2,1.2c-0.9,0.8-1.5,1.8-2.1,2.8c-1.1,2.1-1.9,4.3-2.4,6.6c-0.1,0.3-0.2,0.5-0.5,0.6
		c-1.7,0.6-3.4,0.9-5.1,1c-1.9,0.2-3.8,0.3-5.6,0.5c-1,0.1-1.9,0.3-2.9,0.7c-0.5,0.2-1,0.5-1.5,0.8c-0.2,0.2-0.4,0.4-0.6,0.7
		c-0.1,0.2-0.1,0.3,0,0.5c0.2,0.1,0.3,0.1,0.5-0.1c0,0,0,0,0,0c0.4-0.5,0.9-0.7,1.5-0.9c0.9-0.3,1.8-0.5,2.7-0.6
		c1.7-0.2,3.5-0.3,5.2-0.5c1.5-0.1,2.9-0.3,4.3-0.7c0.5-0.1,1.1-0.3,1.6-0.4c0,0.1,0,0.1,0,0.1c0,0.1,0,0.2,0,0.3
		c-0.3,1.6-0.4,3.2-0.4,4.8c0,3.8,0.6,7.6,1.6,11.3c0.3,1.3,0.7,2.6,1.4,3.8c0.3,0.5,0.6,1.1,1.1,1.5c0.3,0.3,0.5,0.5,0.9,0.6
		c0.9,0.4,1.8,0,2.2-0.9c0.2-0.4,0.2-0.8,0.2-1.2c0-1.5-0.2-3-0.7-4.4c-0.3-0.9-0.3-1.7-0.2-2.7c0.3-1.9,0.8-3.6,1.8-5.2
		c0.6-0.9,1.3-1.8,2.1-2.4c0.4-0.3,0.8-0.6,1.3-0.7c0.8-0.2,1.1-0.1,1.3,0.8c0.2,1.2,0.3,2.4,0.3,3.6c0,2-0.1,4-0.1,5.9
		c0,1.4-0.1,2.8,0.1,4.2c0.2,1.7,0.8,3.3,1.8,4.6c0.5,0.6,1,1.1,1.7,1.5c1,0.5,1.9,0.5,2.9-0.2c0.2-0.2,0.5-0.4,0.6-0.6
		c0.5-0.6,0.9-1.3,1.1-2c0.5-1.3,0.8-2.6,1-4c0.1-0.3,0-0.7,0.2-1.1c0.1,0.1,0.2,0.2,0.3,0.3c0.3,0.6,0.7,1.1,1.2,1.6
		c1.1,1.2,2.4,2.1,4,2.5c1.7,0.5,3.1-0.1,3.9-1.6c0.5-0.8,0.8-1.6,1.1-2.4c0.3-0.8,0.4-1.6,0.6-2.4c0-0.1,0-0.2,0.1-0.3
		c0.2,0.1,0.2,0.3,0.3,0.4c0.3,0.5,0.7,1.1,1.2,1.5c0.4,0.4,0.8,0.7,1.2,0.9c1.1,0.5,2.3,0.3,3.2-0.6c0.7-0.7,1.2-1.6,1.5-2.5
		c0.3-0.7,0.5-1.4,0.7-2.1c0-0.1,0-0.2,0.2-0.4c0,0.4,0,0.7,0,1c0,1.4,0.1,2.7,0.4,4c0.3,1.6,0.9,3.1,1.9,4.4c0.5,0.6,1,1.2,1.7,1.6
		c1.4,0.8,2.8,0.5,3.8-0.7c0.3-0.4,0.6-0.9,0.8-1.4c0.7-1.5,1.1-3,1.3-4.6c0.4-2.4,0.6-4.8,0.7-7.2c0-2.5-0.2-5-1-7.4
		c0-0.1-0.1-0.2,0-0.4c1,0.1,1.9,0.1,2.9,0.2c0.6,0,1.2,0.2,1.8,0.4c0.4,0.2,0.5,0.2,0.3,0.6c-0.2,0.7-0.4,1.4-0.6,2.1
		c-0.2,1.2-0.4,2.3-0.5,3.5c-0.3,2.4-0.5,4.8-0.4,7.3c0,1.1,0.1,2.1,0.5,3.1c0.5,1.5,1.2,2.8,2.2,4c0.7,0.8,1.6,1.3,2.7,1.5
		c1.1,0.2,2-0.2,2.7-1.1c0.6-0.8,1.1-1.7,1.4-2.6c0.4-1.2,0.7-2.4,1.1-3.6c0-0.1,0-0.2,0.2-0.3c0.1,0.5,0.2,1,0.4,1.5
		c0.5,1.7,1.2,3.4,2.4,4.8c0.5,0.6,1.1,1.1,1.7,1.5c0.9,0.5,1.8,0.8,2.8,0.7c1.4-0.1,2.4-0.8,3.2-1.8c0.4-0.5,0.8-1.1,1.1-1.7
		c0.9-1.4,1.5-3,2-4.5c0.1,0.1,0.2,0.2,0.3,0.3c0.1,0.2,0.3,0.3,0.4,0.5c0,0.2-0.2,0.4-0.3,0.6c-0.9,1.7-0.9,3.4,0.4,4.9
		c1.1,1.4,2.8,1.5,4,0.3c0.7-0.6,1.1-1.4,1.2-2.2c0.2-0.9,0.2-1.9-0.1-2.8c-0.3-1-0.6-2-1-2.9c-0.2-0.4-0.2-0.4,0.2-0.7
		c0.6-0.5,1.3-1,1.9-1.6c0.6-0.6,1.1-1.3,1.4-2.2C264.3,284.3,264.2,283.3,263.6,282.4z M222,272.7c-0.3-0.3-0.5-0.6-0.5-1
		c0-0.4,0.2-0.6,0.5-0.6c0.2,0,0.5,0,0.7,0.1c0.2,0.1,0.4,0.2,0.6,0.3c1,0.8,1.8,1.7,2.3,2.9C224.3,274.1,223.1,273.6,222,272.7z
		 M181.6,268.9c0.2-1.3,0.6-2.7,1.1-3.9c0.2-0.5,0.5-1,0.9-1.4c0.2-0.3,0.5-0.5,0.9-0.6c0.6-0.2,1.1,0,1.3,0.6
		c0.1,0.4,0.2,0.7,0.1,1.1c-0.1,0.6-0.3,1.1-0.6,1.6c-0.9,1.6-2.2,2.8-3.7,3.8c0,0-0.1,0-0.2,0C181.4,269.7,181.5,269.3,181.6,268.9
		z M201.7,282.1c0-0.1,0-0.2,0-0.3c0-1.2,0.2-2.3,0.4-3.5c0.1-0.3,0.1-0.4,0.4-0.2c1,0.7,1.5,1.6,1.5,2.8c0,0.5-0.3,0.8-0.7,1
		c-0.4,0.2-0.8,0.3-1.3,0.4C201.7,282.4,201.7,282.3,201.7,282.1z M218.2,281.6c0,0.5-0.2,0.9-0.3,1.3c-0.4,1.4-0.8,2.8-1.3,4.2
		c-0.3,0.8-0.7,1.6-1.2,2.3c-0.2,0.3-0.5,0.6-0.8,0.8c-0.4,0.2-0.7,0.2-1-0.1c-0.3-0.3-0.4-0.6-0.6-1c-0.4-1.1-0.6-2.3-0.6-3.5
		c0-1.7,0.1-3.5,0.6-5.1c0.2-0.6,0.4-1.2,0.7-1.7c0.6-1,1.8-1.4,2.9-1.2c0.6,0.1,1,0.4,1.5,0.8c0.1,0.1,0.2,0.2,0.2,0.4
		C218.3,279.7,218.3,280.7,218.2,281.6z M256.1,280.9c-0.2-1.2-0.6-2.2-0.5-3.3c0-0.4,0.1-0.8,0.4-1.1c0.5-0.7,1.3-0.7,1.8-0.1
		c0.5,0.5,0.5,1.1,0.4,1.8C257.8,279.2,257.1,280.1,256.1,280.9z M258.7,296.3c-0.3,0.6-0.8,0.8-1.4,0.4c-0.3-0.2-0.5-0.5-0.6-0.8
		c-0.3-0.8-0.3-1.6,0-2.3c0.1-0.2,0.2-0.5,0.4-0.8c0.7,0.7,1.2,1.5,1.7,2.3C258.9,295.4,258.9,295.9,258.7,296.3z"/>
	<path d="M205.6,224.8c0.3-0.1,0.4-0.3,0.6-0.5c0.4-0.4,0.6-1,0.9-1.5c0.8-1.8,1.5-3.8,2.1-5.7c0.2-0.5,0.3-1,0.5-1.5
		c0.2-0.5,0.2-1,0.2-1.5c-0.1-1.6-0.2-3.2-0.2-4.8c0-0.1,0-0.2,0-0.3c-0.2-0.1-0.2,0-0.3,0.1c-0.5,0.3-0.9,0.6-1.2,1
		c-0.2,0.2-0.4,0.3-0.7,0.2c-0.2-0.1-0.3-0.4-0.3-0.7c0.1-0.4,0.3-0.7,0.5-0.9c0.5-0.5,1-0.8,1.6-1.1c0.2-0.1,0.3-0.2,0.3-0.5
		c0-1.5,0-3,0.1-4.5c0-0.8,0.1-1.7,0.3-2.5c0.1-0.5,0.3-0.9,0.7-1.3c0.7-0.8,1.7-0.8,2.5-0.2c0.5,0.4,0.7,0.9,0.9,1.5
		c0.2,0.7,0.3,1.5,0.4,2.2c0.1,1.1,0.1,2.3,0.1,3.4c0,0.7-0.1,0.6,0.7,0.6c0.8-0.1,1.6-0.1,2.4-0.1c0.9,0,1.9-0.1,2.8-0.1
		c0.4,0,0.4,0,0.5-0.4c0.2-1,0.5-2,1-3c0.6-1.2,1.5-2.3,2.6-3.1c0.6-0.5,1.3-0.8,2.2-0.9c1.9-0.2,3.4,1.4,3.1,3.3
		c-0.2,0.9-0.6,1.6-1.2,2.3c-0.7,0.7-1.5,1.3-2.4,1.7c-0.3,0.1-0.4,0.3-0.4,0.6c-0.2,1.6-0.2,3.3-0.1,4.9c0.1,1.2,0.2,2.3,0.4,3.5
		c0.2-0.1,0.2-0.3,0.3-0.4c1-2.3,2.4-4.4,4.2-6.3c0.5-0.6,1.1-1.1,1.8-1.5c1.3-0.7,2.6-0.5,3.6,0.5c0.5,0.5,0.9,1,1.2,1.7
		c0.4,0.9,0.6,1.9,0.8,2.8c0.3,1.6,0.6,3.3,0.8,4.9c0.1,0.6,0.3,1.1,0.7,1.5c0.4,0.4,0.9,0.6,1.5,0.7c1.5,0.1,2.8-0.3,3.9-1.4
		c0.9-0.9,1.5-2,2-3.2c0.6-1.5,1-3.1,1-4.7c0-1.2-0.3-2.3-0.8-3.4c-0.3-0.6-0.7-1.2-1.3-1.6c-0.5-0.4-1.1-0.5-1.7-0.5
		c-0.4,0-0.8,0.2-1.1,0.6c-0.5,0.6-0.7,1.3-0.6,2.1c0.1,0.4,0.2,0.8,0.6,1.1c0.2,0.2,0.4,0.3,0.6,0.5c0.2,0.2,0.2,0.5,0.1,0.7
		c-0.1,0.2-0.4,0.3-0.7,0.1c-1-0.4-1.7-1.2-1.8-2.3c-0.2-1.2,0.2-2.3,1.1-3.2c0.8-0.8,1.8-0.9,2.9-0.6c0.7,0.2,1.3,0.6,1.8,1.2
		c0.9,1,1.4,2.1,1.6,3.4c0.4,2.2,0.1,4.3-0.5,6.5c-0.4,1.6-1.2,3.1-2.4,4.4c-1.7,1.8-3.8,2.6-6.3,2.4c-1.4-0.1-2.5-0.8-3.6-1.7
		c-1.3-1.2-2.1-2.7-2.4-4.4c-0.3-1.5-0.5-2.9-0.7-4.4c-0.1-0.4-0.1-0.8-0.2-1.3c-0.4,0-0.7,0.3-1.1,0.5c-0.4,0.3-0.8,0.6-1.1,1
		c-1.7,1.9-2.9,4.1-3.6,6.6c-0.1,0.3,0,0.5,0,0.8c0.3,1,0.4,2.1,0.5,3.1c0,0.6,0,1.2-0.2,1.8c-0.3,1.2-1.4,1.7-2.5,1.1
		c-0.4-0.2-0.8-0.6-1.1-1c-0.4-0.5-0.7-1.1-1-1.7c-0.1-0.1-0.1-0.3-0.2-0.5c-0.1,0.1-0.2,0.3-0.2,0.4c-0.3,0.9-0.6,1.9-1,2.8
		c-0.4,1-0.8,1.9-1.5,2.7c-0.5,0.6-1.1,1.1-1.9,1.2c-0.6,0.1-1.1,0-1.6-0.2c-0.7-0.3-1.3-0.7-1.9-1.3c-1.2-1.2-2.1-2.7-2.8-4.2
		c-0.5-1.1-0.8-2.3-1-3.5c0-0.2-0.1-0.4-0.1-0.6c-0.2,0.1-0.1,0.2-0.2,0.3c-0.4,1.4-0.8,2.8-1.2,4.2c-0.2,0.8-0.5,1.5-0.9,2.2
		c-0.4,0.7-0.9,1.3-1.6,1.7c-0.8,0.5-1.7,0.6-2.5,0c-2-1.5-3.4-3.3-3.8-5.8c-0.3-2.1-0.4-4.2-0.5-6.3c0-2,0-4.1,0.1-6.1
		c0-0.1,0-0.3,0-0.4c-0.2,0-0.4,0.1-0.5,0.2c-1.2,0.6-2.4,1.1-3.8,1.4c-0.3,0.1-0.3,0.2-0.3,0.4c0.4,4.4-0.3,8.6-1.9,12.7
		c-0.6,1.5-1.3,2.9-2.3,4.1c-0.6,0.7-1.3,1.3-2.1,1.7c-1.2,0.5-2.3,0.4-3.4-0.2c-0.5-0.3-1-0.8-1.4-1.3c-1.1-1.4-1.7-2.9-1.9-4.7
		c-0.2-2.1-0.2-4.2,0-6.3c0.1-1.6,0.2-3.1,0.4-4.6c0.1-0.9,0.3-1.9,0.4-2.8c0-0.1,0.1-0.2,0-0.2c-0.2-0.1-0.2,0.1-0.3,0.1
		c-0.5,0.4-1,0.9-1.4,1.4c-0.6,0.7-1.2,1.6-1.7,2.4c-0.4,0.5-0.7,1.1-1.1,1.6c-0.2,0.3-0.4,0.5-0.6,0.7c-0.8,0.7-1.7,1-2.7,0.7
		c-1-0.2-1.8-0.8-2.4-1.5c-1.3-1.3-2-3-2.4-4.8c-0.1-0.3-0.1-0.6-0.2-1c-0.2,0-0.3,0.1-0.5,0.2c-1.9,0.9-3.9,1.5-6,1.5
		c-0.5,0-1-0.1-1.4-0.3c-0.2-0.1-0.4-0.2-0.5-0.4c-0.1-0.1-0.1-0.3,0-0.5c0.1-0.1,0.2-0.2,0.4-0.2c2.3,0.4,4.5-0.1,6.7-0.9
		c0.3-0.1,0.6-0.3,0.9-0.4c0.3-0.1,0.3-0.2,0.3-0.6c-0.2-1.7,0-3.4,0.6-5c0.2-0.4,0.3-0.9,0.6-1.3c0.1-0.3,0.3-0.5,0.5-0.7
		c0.5-0.7,1.2-1.1,2-0.8c0.9,0.3,1.5,0.9,1.6,1.8c0.2,0.8,0,1.5-0.2,2.2c-0.1,0.4-0.3,0.8-0.5,1.1c-0.2,0.2-0.2,0.5-0.1,0.7
		c0.2,1,0.4,2,0.7,2.9c0.4,1.6,0.8,3.1,1.3,4.7c0.1,0.3,0.2,0.6,0.3,0.9c0.2,0.4,0.3,0.4,0.7,0.2c0.3-0.2,0.5-0.4,0.7-0.7
		c0.5-0.5,0.9-1.1,1.3-1.8c0.8-1.2,1.6-2.3,2.5-3.3c0.4-0.4,0.7-0.8,1.1-1.1c1.1-0.9,2.4-0.8,3.3,0.3c0.8,0.8,1.1,1.8,1.2,2.9
		c0.2,1.4,0,2.9-0.1,4.3c-0.1,2.3-0.3,4.6-0.1,6.9c0.1,1.3,0.2,2.7,0.4,4c0,0.4,0.1,0.7,0.3,1c0.1,0.3,0.2,0.3,0.5,0.3
		c0.3-0.1,0.6-0.3,0.9-0.5c0.6-0.5,1.1-1.1,1.6-1.7c1.2-1.7,2-3.6,2.5-5.7c0.7-2.7,0.9-5.4,0.7-8.2c0-0.3,0-0.4-0.4-0.4
		c-1.7-0.2-3.3-1.6-3.7-3.2c-0.2-0.6-0.2-1.2,0.1-1.8c0.4-1.2,1.7-1.6,2.7-0.8c0.4,0.3,0.6,0.6,0.9,1c0.6,1,1,2.1,1.3,3.2
		c0.1,0.5,0.1,0.5,0.6,0.4c1.5-0.2,2.9-0.8,4.2-1.7c0.2-0.1,0.3-0.3,0.4-0.5c0.6-1.3,2-1.7,3.2-0.8c0.5,0.4,0.8,0.9,1.1,1.4
		c0.2,0.6,0.3,1.3,0.4,1.9c0.1,0.8,0.1,1.6,0.1,2.5c0,1.6,0,3.2,0.1,4.8c0.1,1.3,0.2,2.6,0.4,3.9c0.2,1,0.2,1.9,0.2,2.9
		c0,0.4,0,0.8,0.1,1.2C205.4,224.3,205.4,224.6,205.6,224.8z M220.5,207.7c0-0.3,0-0.3-0.3-0.3c-1.7,0.2-3.5,0.2-5.2,0.3
		c-0.5,0-0.5,0-0.5,0.5c0,0.7,0.1,1.4,0.1,2.2c0.1,1.7,0.2,3.4,0.3,5c0.3,2.4,0.6,4.7,0.9,7.1c0.1,0.8,0.2,1.6,0.5,2.4
		c0.1,0.3,0.2,0.7,0.5,1c0.4,0.5,0.8,0.6,1.3,0.2c0.3-0.2,0.5-0.4,0.7-0.7c0.4-0.6,0.7-1.2,1-1.8c0.6-1.3,1.1-2.7,1.6-4
		c0.1-0.4,0.1-0.7,0.1-1c-0.5-2.2-0.9-4.5-0.9-6.7C220.4,210.4,220.4,209.1,220.5,207.7z M225.9,204.6c0.8-0.4,1.4-0.9,1.9-1.5
		c0.2-0.3,0.4-0.5,0.5-0.9c0.1-0.4,0.1-0.7,0-1.1c-0.2-0.6-0.6-0.7-1.1-0.3c-0.2,0.2-0.3,0.4-0.4,0.6
		C226.2,202.4,226.1,203.4,225.9,204.6z M193.7,208.5c-0.2-1.1-0.9-2.6-1.5-3.4c-0.1-0.1-0.2-0.2-0.3-0.3c-0.2-0.2-0.4-0.1-0.5,0.2
		c-0.1,0.2-0.1,0.4-0.1,0.7c0.1,0.6,0.3,1.2,0.7,1.7C192.3,208,192.9,208.3,193.7,208.5z M173.4,200.1c0,0.9,0.1,1.8,0.3,2.7
		C174.3,201.7,174.1,200.5,173.4,200.1z"/>
	<path d="M186.8,190.4c0.2-0.6,0.4-1.2,0.6-1.8c0.9-2.5,2.4-4.7,4.1-6.6c0.2-0.3,0.5-0.5,0.8-0.7c0.9-0.6,2-0.7,3-0.1
		c0.6,0.4,1,0.9,1.3,1.4c0.5,0.9,0.8,1.8,0.9,2.8c0.3,2.2,0.3,4.4,0.2,6.7c-0.1,1.3-0.2,2.5-0.3,3.8c0,0.5-0.1,1.1,0,1.6
		c0,0.2,0,0.3,0.1,0.5c0.2-0.1,0.3-0.3,0.5-0.5c0.3-0.5,0.5-1,0.7-1.6c0.5-1.5,0.7-3.1,1-4.7c0.1-0.8,0.2-1.6,0.3-2.4
		c0-0.3,0-0.5-0.1-0.7c-1.2-3.2-1.5-6.5-1.2-9.9c0.1-1,0.3-1.9,0.7-2.8c0.4-0.9,1-1.7,1.8-2.3c0.4-0.3,0.9-0.5,1.4-0.7
		c0.7-0.2,1.4-0.2,2.1,0.2c1.5,0.9,2.4,2.2,2.4,4c0,1-0.4,1.8-1.3,2.4c-0.5,0.3-1.1,0.5-1.7,0.6c-0.4,0.1-0.4,0.1-0.4,0.4
		c0.1,2.5,0.4,4.9,1.5,7.2c0.4,0.9,0.7,1.8,1.1,2.6c0.1,0.3,0.2,0.6,0.4,0.8c0.2,0.3,0.5,0.5,1,0.5c0.6,0,1.1-0.2,1.5-0.5
		c0.5-0.4,0.9-0.9,1.2-1.4c0.5-0.8,0.9-1.7,1.2-2.6c0.8-2.5,1.3-5,1.3-7.7c0-1-0.1-2-0.4-2.9c-0.1-0.4-0.1-0.4-0.5-0.4
		c-0.8-0.1-1.6-0.2-2.3-0.5c-0.8-0.3-1.4-0.7-1.9-1.4c-0.4-0.6-0.6-1.3-0.4-2.1c0.3-0.9,1-1.4,2-1.2c0.8,0.2,1.4,0.6,1.9,1.2
		c0.7,0.7,1.1,1.6,1.5,2.5c0.2,0.5,0.2,0.6,0.8,0.5c1.3,0,2.6-0.1,4-0.4c0.9-0.2,1.7,0.1,2.3,0.9c0.5,0.6,0.7,1.3,0.8,2
		c0.1,1-0.1,2.1-0.2,3.1c-0.4,2.3-0.9,4.6-1.3,6.9c-0.3,1.4-0.4,2.8-0.5,4.2c-0.1,1-0.3,1.9-0.3,2.9c0,0.5,0,1,0.1,1.6
		c0,0.2,0.1,0.5,0.3,0.5c0.3,0.1,0.4-0.1,0.6-0.3c0.3-0.3,0.5-0.7,0.7-1.1c0.3-0.7,0.6-1.5,0.8-2.3c0.5-1.7,1.1-3.3,1.6-5
		c0.1-0.2,0.1-0.5,0-0.7c-0.6-2.3-0.8-4.5-0.6-6.9c0.1-1.5,0.4-3,1.1-4.5c0.4-1,1-1.8,1.8-2.5c0.3-0.2,0.6-0.4,0.9-0.6
		c1.2-0.6,2.4-0.3,3.3,0.8c0.7,0.8,1.1,1.8,1.4,2.8c0.3,1,0.4,2,0.2,3.1c-0.2,1.3-0.8,2.2-2.1,2.8c-0.4,0.2-0.8,0.3-1.2,0.4
		c-0.4,0.1-0.4,0.1-0.4,0.5c0.1,1.1,0.3,2.2,0.6,3.3c0.4,1.1,0.7,2.3,1.1,3.4c0.2,0.5,0.4,1,0.8,1.4c0.9,0.9,2,1.1,3.1,0.6
		c0.5-0.2,0.9-0.6,1.3-1c0.4-0.5,0.8-1,1-1.5c0.7-1.3,1.3-2.6,1.7-4.1c0.3-1.2,0.6-2.4,0.8-3.5c0-0.1,0.1-0.3,0.1-0.4
		c0-0.2,0.1-0.3,0.3-0.4c0.2,0,0.3,0.1,0.4,0.2c0.1,0.2,0.1,0.4,0.1,0.7c-0.1,0.9-0.2,1.8-0.3,2.6c-0.4,2.5-1.1,4.8-2.6,6.8
		c-0.7,1-1.6,1.7-2.5,2.4c-0.6,0.4-1.2,0.5-1.9,0.6c-3.4,0.3-5.6-1.5-7.3-4.2c-0.1-0.2-0.1-0.4-0.3-0.6c-0.2,0.6-0.3,1.1-0.4,1.6
		c-0.4,1.5-0.8,3-1.4,4.4c-0.2,0.4-0.3,0.8-0.5,1.2c-0.2,0.3-0.3,0.6-0.6,0.9c-0.9,1.1-2.2,1.3-3.4,0.4c-0.4-0.3-0.7-0.6-1.1-1
		c-1-1.3-1.5-2.7-1.7-4.3c-0.2-1.4-0.2-2.7,0-4.1c0.5-3.6,1.2-7.2,2.1-10.7c0.1-0.5,0.3-0.9,0.4-1.4c0.1-0.2,0-0.3-0.2-0.4
		c-0.2,0-0.4-0.1-0.6-0.1c-0.6,0-1.3-0.1-1.9-0.1c-0.3,0-0.3,0-0.3,0.3c0.1,0.7,0.2,1.4,0.3,2c0.3,2,0.1,4-0.3,6
		c-0.2,0.9-0.4,1.9-0.6,2.8c-0.4,1.4-1,2.7-1.9,3.9c-0.3,0.5-0.7,0.9-1.2,1.3c-1.3,1.1-2.7,1.4-4.4,1c-1.7-0.4-3-1.3-4-2.7
		c-0.1-0.1-0.1-0.2-0.3-0.2c-0.1,0.4-0.1,0.9-0.2,1.3c-0.2,1.6-0.5,3.1-0.9,4.6c-0.2,0.7-0.5,1.5-0.9,2.1c-0.2,0.3-0.4,0.6-0.7,0.8
		c-0.6,0.5-1.3,0.6-2,0.2c-0.4-0.2-0.7-0.6-1-0.9c-0.9-1.2-1.5-2.6-1.9-4.1c-0.4-1.6-0.5-3.2-0.6-4.8c-0.1-1.8,0-3.6-0.1-5.4
		c0-0.1,0-0.2,0-0.3c0-0.2-0.1-0.2-0.3-0.1c-0.3,0.2-0.6,0.4-0.9,0.6c-1.1,1-2,2.2-2.6,3.6c-1,2.1-1.4,4.3-1.5,6.6c0,0.5,0,1,0,1.5
		c0,0.8-0.6,1.3-1.4,1.1c-0.5-0.1-0.9-0.5-1.2-0.9c-0.7-0.8-1.3-1.8-1.8-2.7c-0.8-1.7-1.4-3.4-1.7-5.3c-0.1-0.9-0.2-1.7-0.3-2.6
		c-0.2,0-0.4,0.1-0.5,0.2c-1.7,0.9-3.5,1.5-5.4,1.8c-3.2,0.6-6.1-0.1-8.9-1.7c-1.2-0.7-2.3-1.6-3.2-2.7c-0.1-0.1-0.1-0.2-0.2-0.2
		c-0.1-0.2-0.1-0.3,0-0.5c0.1-0.2,0.3-0.2,0.5-0.2c0.2,0,0.3,0.1,0.4,0.2c0.3,0.2,0.6,0.5,0.9,0.7c1.7,1.3,3.5,2.3,5.6,2.8
		c2.4,0.6,4.8,0.4,7.2-0.3c1.1-0.3,2.1-0.8,3.1-1.3c0.3-0.1,0.4-0.3,0.4-0.6c0-2.1,0.2-4.1,0.7-6.1c0.5-2.1,1.4-4,2.5-5.8
		c0.4-0.6,0.8-1.2,1.3-1.7c0.3-0.3,0.6-0.6,1-0.8c0.9-0.4,1.8-0.3,2.5,0.4c0.5,0.5,0.8,1.1,1,1.7c0.4,1.6,0.2,3.1-0.4,4.6
		c-0.6,1.7-1.7,3.1-2.8,4.5c-0.3,0.4-0.7,0.8-1.1,1.2c-0.2,0.2-0.3,0.4-0.2,0.7c0.3,2.1,0.7,4.2,1.1,6.3
		C186.6,189.5,186.7,190,186.8,190.4C186.8,190.4,186.8,190.4,186.8,190.4z M185.2,181c0.1-0.1,0.2-0.1,0.2-0.1
		c1.2-1.4,2.3-2.8,3.1-4.5c0.5-1,0.7-2.1,0.7-3.2c0-0.6-0.2-1.3-0.5-1.8c-0.6-0.9-1.3-0.9-2,0c-0.3,0.5-0.6,1-0.7,1.6
		c-0.6,1.8-0.8,3.7-0.9,5.6C185.1,179.3,185.2,180.1,185.2,181z M227.7,175.2c-0.1,0-0.1,0.1-0.1,0.2c-0.3,1.2-0.6,2.3-0.8,3.5
		c-0.1,0.7-0.2,1.4-0.2,2.1c0,0.3,0,0.3,0.3,0.3c0.3-0.1,0.7-0.1,1-0.2c0.6-0.2,1-0.6,1.2-1.2c0.5-1.6,0.2-3-0.9-4.3
		C228,175.4,227.9,175.3,227.7,175.2z M203.7,177.6c0,0.1,0,0.3,0,0.4c0,0.2,0.1,0.3,0.3,0.3c0.5-0.1,0.9-0.1,1.3-0.3
		c0.3-0.1,0.6-0.3,0.7-0.7c0.3-1,0-2.2-1.2-2.6c-0.5-0.2-0.7-0.1-0.8,0.4C203.8,175.9,203.7,176.8,203.7,177.6z M211.9,174.8
		c-0.5-1.1-1-2.2-2-2.9c-0.3-0.2-0.5-0.3-0.9-0.4c-0.4,0-0.7,0.1-0.8,0.5c-0.1,0.2-0.1,0.4,0,0.5c0.1,0.6,0.4,1,0.9,1.4
		C209.9,174.5,210.9,174.7,211.9,174.8z"/>
	<path d="M264.6,250.8c-0.2,0.1-0.2,0.3-0.3,0.4c-0.4,0.7-0.7,1.4-1.2,2c-0.3,0.4-0.5,0.7-0.9,1c-0.9,0.8-1.9,1-3,0.5
		c-0.7-0.3-1.3-0.9-1.9-1.5c-1.1-1.3-1.6-2.8-1.9-4.4c-0.2-1-0.2-2.1-0.2-3.1c0-1.4,0-2.9,0.1-4.3c0-0.1,0-0.3,0-0.4
		c-0.2,0.1-0.2,0.3-0.3,0.4c-0.8,1.6-1.4,3.3-2.1,5c-0.4,1-0.8,2-1.3,3c-0.3,0.6-0.6,1.1-1,1.6c-0.8,0.9-1.7,1.1-2.8,0.7
		c-0.6-0.3-1.2-0.7-1.7-1.2c-0.9-1-1.6-2.1-2.1-3.3c-1.1-2.7-1.4-5.6-1-8.5c0.1-0.5,0.2-0.9,0.4-1.4c0.2-0.3,0.4-0.7,0.6-0.9
		c0.8-0.7,1.9-0.7,2.5,0.2c0.4,0.6,0.6,1.2,0.7,1.9c0.2,0.9,0.2,1.9,0.3,2.8c0.1,1.9,0.1,3.8,0.2,5.7c0,0.8,0.1,1.6,0.3,2.4
		c0.1,0.3,0.2,0.6,0.3,0.9c0.3,0.4,0.7,0.5,1.1,0.2c0.3-0.2,0.5-0.5,0.7-0.7c0.4-0.6,0.7-1.2,1-1.8c0.4-1,0.8-2,1.2-2.9
		c0.9-2.1,1.7-4.2,2.7-6.3c0.1-0.3,0.2-0.6,0.3-1c0.1-0.7,0.2-1.4,0.5-2c0.2-0.5,0.6-0.9,1.2-1.1c0.7-0.2,1.3,0,1.9,0.5
		c0.4,0.4,0.7,0.9,0.9,1.4c0.2,0.6,0.3,1.3,0.3,2c0.1,1.3,0,2.6,0,3.9c0,1.4-0.1,2.8,0,4.2c0.1,1.8,0.2,3.5,0.3,5.3
		c0,0.3,0.1,0.7,0.2,1c0.1,0.3,0.2,0.3,0.4,0.2c0.2-0.1,0.3-0.2,0.4-0.3c0.3-0.3,0.6-0.6,0.8-0.9c0.4-0.7,0.8-1.4,1.1-2.1
		c0.1-0.2,0.1-0.4,0-0.6c-1-2.5-1.6-5.1-2.1-7.8c-0.4-2.4-0.7-4.8-0.9-7.3c-0.1-1.6-0.2-3.1-0.2-4.7c0-2.2,0.3-4.3,1-6.4
		c0.6-1.8,1.5-3.6,2.7-5.1c0.4-0.5,0.8-0.9,1.3-1.3c1.3-0.9,2.6-0.8,3.7,0.4c0.7,0.8,1.1,1.7,1.3,2.7c0.6,2.1,0.7,4.3,0.7,6.5
		c0,2.3-0.4,4.5-0.9,6.7c-0.7,3.5-1.7,6.9-2.9,10.3c-0.1,0.4-0.2,0.8,0,1.2c0.5,1.9,1.2,3.8,1.9,5.6c0.3,0.9,0.8,1.7,1.3,2.5
		c0.7,1,1.7,1.6,3,1.5c0.6,0,1.2-0.2,1.8-0.6c0.9-0.5,1.6-1.2,2.1-2.1c0.8-1.4,1.4-3,1.7-4.6c0.1-0.5,0.2-1,0.3-1.5
		c0.1-0.4,0.2-0.7,0.2-1.1c0-0.2,0.1-0.3,0.3-0.4c0.2-0.1,0.3,0,0.4,0.2c0.2,0.2,0.2,0.4,0.2,0.6c0,1.4-0.1,2.8-0.5,4.2
		c-0.3,1.2-0.7,2.4-1.3,3.5c-0.4,0.8-0.9,1.5-1.5,2c-2,2-4.3,2.5-7,1.6c-1.9-0.7-3.4-1.9-4.7-3.5
		C265.3,251.7,264.9,251.2,264.6,250.8z M266.9,240.9c0.1-0.3,0.2-0.6,0.3-0.8c1.3-4.2,2.4-8.4,2.8-12.7c0.2-2.2,0.1-4.4-0.4-6.6
		c-0.2-0.7-0.4-1.4-0.7-2.1c-0.2-0.4-0.5-0.7-0.9-1c-0.3-0.2-0.5-0.2-0.7,0.1c-0.2,0.3-0.4,0.6-0.5,0.9c-0.3,0.8-0.5,1.6-0.7,2.5
		c-0.2,1.2-0.2,2.3-0.4,3.5c-0.2,1.6-0.2,3.2-0.2,4.9c0.1,3.1,0.4,6.3,0.9,9.4C266.5,239.5,266.6,240.2,266.9,240.9z"/>
	<path d="M201.6,203c-1,0-1.8-0.8-1.8-1.8c0-1,0.9-1.8,1.9-1.8c1,0,1.8,0.8,1.7,1.8C203.4,202.2,202.6,203,201.6,203z"/>
</g>
</svg>
